<svg width="128" height="128" viewBox="0 0 128 128" fill="none" xmlns="http://www.w3.org/2000/svg">
<path d="M34 34.0005H14C8.5 34.0005 4 38.5005 4 44.0005V69.0005C4 74.5005 8.5 79.0005 14 79.0005V114C14 116.75 16.25 119 19 119H29C31.75 119 34 116.75 34 114V79.0005C39.5 79.0005 44 74.5005 44 69.0005V44.0005C44 38.5005 39.5 34.0005 34 34.0005Z" fill="black"/>
<path d="M69.0005 43.9998H59.0005C53.5005 43.9998 49.0005 48.4998 49.0005 53.9998V78.9998C49.0005 82.6698 51.0305 85.8648 54.0005 87.6048V114C54.0005 116.75 56.2505 119 59.0005 119H69.0005C71.7505 119 74.0005 116.75 74.0005 114V87.6048C76.9705 85.8598 79.0005 82.6748 79.0005 78.9998V53.9998C79.0005 48.4998 74.5005 43.9998 69.0005 43.9998Z" fill="black"/>
<path d="M24.0007 29C29.5236 29 34.0007 24.5228 34.0007 19C34.0007 13.4771 29.5236 9 24.0007 9C18.4779 9 14.0007 13.4771 14.0007 19C14.0007 24.5228 18.4779 29 24.0007 29Z" fill="black"/>
<path d="M63.9993 39.0007C69.5221 39.0007 73.9993 34.5236 73.9993 29.0007C73.9993 23.4779 69.5221 19.0007 63.9993 19.0007C58.4764 19.0007 53.9993 23.4779 53.9993 29.0007C53.9993 34.5236 58.4764 39.0007 63.9993 39.0007Z" fill="black"/>
<path d="M103.999 49C109.522 49 114 44.5228 114 39C114 33.4772 109.522 29 103.999 29C98.4767 29 93.9995 33.4772 93.9995 39C93.9995 44.5228 98.4767 49 103.999 49Z" fill="black"/>
<path d="M124 76.5005C124 64.0755 115.045 54.0005 104 54.0005C92.9552 54.0005 84.0002 64.0755 84.0002 76.5005C84.0002 84.8055 88.0502 91.9855 94.0002 95.8805V114C94.0002 116.75 96.2502 119 99.0002 119H109C111.75 119 114 116.75 114 114V95.8805C119.95 91.9855 124 84.8055 124 76.5005Z" fill="black"/>
</svg>
