<svg width="128" height="128" viewBox="0 0 128 128" fill="none" xmlns="http://www.w3.org/2000/svg">
<g clip-path="url(#clip0_1_190)">
<path fill-rule="evenodd" clip-rule="evenodd" d="M80.3333 64.5745C85.0514 64.5745 89.7813 62.7889 92.883 59.2808C94.0358 57.9731 93.9764 55.9235 92.7404 54.7038C91.5045 53.4841 89.5673 53.547 88.4146 54.8547C84.5047 59.2682 76.4591 58.8281 72.8582 55.3954C71.5985 54.2008 69.6732 54.3014 68.5324 55.6343C67.4034 56.9671 67.4984 59.0041 68.7582 60.2112C71.8243 63.1284 76.0788 64.5745 80.3333 64.5745Z" fill="black"/>
<path fill-rule="evenodd" clip-rule="evenodd" d="M121.402 18.7409C121.111 17.0952 119.496 16.0021 117.784 16.2842C116.084 16.578 114.942 18.1414 115.246 19.787C118.488 37.7363 119.787 47.8805 111.421 64.7248L110.438 66.7113C104.949 77.7254 100.068 87.5169 102.193 96.8383C99.6065 95.6864 96.8138 93.7116 95.4417 90.4438C103.334 77.9487 108.118 61.2102 109.49 47.3045C109.503 47.1987 109.454 47.1047 109.454 46.9989C109.454 46.7873 109.43 46.5875 109.381 46.3877C109.333 46.1996 109.284 46.0233 109.211 45.8469C109.126 45.6706 109.041 45.5061 108.932 45.3415C108.823 45.1887 108.701 45.0359 108.555 44.8948C108.422 44.7655 108.264 44.648 108.106 44.5422C107.936 44.4246 107.754 44.3306 107.548 44.2601C107.451 44.2131 107.378 44.1425 107.268 44.119C90.949 39.4172 79.1222 25.8524 77.1066 15.4731C76.7909 13.8275 75.1759 12.746 73.4639 13.0517C71.7639 13.3573 70.6468 14.9442 70.9625 16.578C73.1724 28.0388 85.1085 42.826 102.994 49.0089C100.687 67.7222 92.3575 90.7965 78.5273 99.6594C67.8419 106.501 64.1506 107.935 62.9242 107.935C59.9736 107.935 53.6474 103.809 49.8711 101.34L47.6491 99.9063C39.1736 94.5109 34.5231 83.2618 29.144 70.2377L27.8812 67.1815C27.2255 65.6299 25.4163 64.8894 23.8135 65.5006C22.2107 66.1354 21.4336 67.8868 22.0771 69.4384L23.3399 72.4828C25.9627 78.8185 28.5247 84.9779 31.5603 90.3968C24.8213 86.506 15.8845 78.6305 11.1368 62.9499C10.6511 61.3512 8.92686 60.4344 7.2512 60.8928C5.59983 61.363 4.64058 63.0439 5.12628 64.6543C13.3953 91.9249 33.3453 98.5075 38.1051 99.7182C39.9386 101.74 41.9543 103.538 44.2249 104.984L46.3862 106.371C53.0039 110.697 58.4315 114 62.9364 114C66.7248 114 73.0267 110.45 82.2186 104.561C85.6063 102.398 88.6662 99.4478 91.4468 96.0037C96.6923 103.28 106.564 104.397 107.05 104.444C107.159 104.455 107.281 104.467 107.378 104.467C108.434 104.467 109.418 103.95 110 103.08C110.644 102.128 110.668 100.894 110.073 99.9063C104.998 91.5252 109.879 81.7337 116.047 69.3561L117.043 67.3696C126.235 48.8679 124.778 37.4072 121.402 18.7409Z" fill="black"/>
<path fill-rule="evenodd" clip-rule="evenodd" d="M52.9947 88.2239C52.2153 90.0051 52.6261 92.3118 53.911 93.3922C54.1638 93.5966 58.0924 96.8085 63.4323 96.8085C66.3077 96.8085 69.6043 95.8741 72.9431 93.0272C74.2175 91.9322 74.6178 89.6255 73.8384 87.8589C73.0484 86.0924 71.3738 85.523 70.1099 86.6326C63.4218 92.3118 56.976 87.1727 56.7021 86.9538C55.4277 85.888 53.7741 86.4574 52.9947 88.2239Z" fill="black"/>
<path d="M20.0448 39.4203L31.9778 43.6193L36.5732 58.1482C36.9684 59.409 38.2161 60.2766 39.6244 60.2766H39.6367C41.045 60.265 42.2926 59.3975 42.6879 58.125L47.1474 43.6309L59.1792 39.4319C60.4269 38.9923 61.2545 37.8818 61.2545 36.6209C61.2422 35.3717 60.4022 34.2612 59.1545 33.8332L47.1474 29.7498L42.6756 15.1516C42.2926 13.8791 41.045 13 39.6367 13C39.6244 13 39.6244 13 39.6244 13C38.2161 13 36.9684 13.8676 36.5732 15.14L31.9778 29.7498L20.0695 33.8332C18.8218 34.2612 17.9942 35.3717 17.9818 36.6209C17.9818 37.8587 18.7971 38.9807 20.0448 39.4203ZM33.5225 34.038C34.9956 33.5749 36.1053 32.5332 36.5645 31.2433L39.5873 22.3634L42.5145 31.2103C42.9545 32.5166 44.0833 33.5749 45.5756 34.038L53.9553 36.6672L45.5373 39.3792C44.0642 39.8422 42.9545 40.8839 42.5145 42.1903L39.5873 50.971L36.5645 42.1572C36.1244 40.8839 35.0148 39.8422 33.5607 39.3792L25.2192 36.6672L33.5225 34.038Z" fill="black"/>
</g>
<defs>
<clipPath id="clip0_1_190">
<rect width="119" height="101" fill="white" transform="translate(5 13)"/>
</clipPath>
</defs>
</svg>
