<svg width="128" height="128" viewBox="0 0 128 128" fill="none" xmlns="http://www.w3.org/2000/svg">
<path fill-rule="evenodd" clip-rule="evenodd" d="M64 10C34.1015 10 10 34.1015 10 64C10 93.8985 34.1015 118 64 118C93.8985 118 118 93.8985 118 64C118 34.1015 93.8985 10 64 10ZM64 20C88.3005 20 108 39.6995 108 64C108 88.3005 88.3005 108 64 108C39.6995 108 20 88.3005 20 64C20 39.6995 39.6995 20 64 20ZM64 45C59.0294 45 55 49.0294 55 54V64C55 68.9706 59.0294 73 64 73C68.9706 73 73 68.9706 73 64V54C73 49.0294 68.9706 45 64 45ZM64 80C59.0294 80 55 84.0294 55 89C55 93.9706 59.0294 98 64 98C68.9706 98 73 93.9706 73 89C73 84.0294 68.9706 80 64 80Z" fill="black"/>
</svg>
