<svg width="128" height="128" viewBox="0 0 128 128" fill="none" xmlns="http://www.w3.org/2000/svg">
<mask id="mask0_1_231" style="mask-type:luminance" maskUnits="userSpaceOnUse" x="2" y="1" width="125" height="125">
<path fill-rule="evenodd" clip-rule="evenodd" d="M2.00467 1H126.419V126H2.00467V1Z" fill="white"/>
</mask>
<g mask="url(#mask0_1_231)">
<path fill-rule="evenodd" clip-rule="evenodd" d="M102.477 1H25.9331C12.7307 1 1.9902 11.7898 1.9902 25.0527V101.947C1.9902 115.21 12.7307 126 25.9331 126H102.477C115.679 126 126.419 115.21 126.419 101.947V25.0527C126.419 11.7898 115.679 1 102.477 1ZM88.0214 34.6914C88.0214 47.8845 77.3378 58.6172 64.2049 58.6172C51.072 58.6172 40.3884 47.8845 40.3884 34.6914C40.3884 21.4983 51.072 10.7656 64.2049 10.7656C77.3378 10.7656 88.0214 21.4983 88.0214 34.6914ZM116.698 101.947C116.698 109.826 110.319 116.234 102.476 116.234H25.9331C18.0906 116.234 11.7112 109.826 11.7112 101.947V25.0527C11.7112 17.1743 18.0906 10.7656 25.9331 10.7656H40.6169C34.4769 16.8748 30.6672 25.3445 30.6672 34.6914C30.6672 53.269 45.712 68.3828 64.2048 68.3828C82.6976 68.3828 97.7423 53.269 97.7423 34.6914C97.7423 25.3445 93.9327 16.8748 87.7926 10.7656H102.476C110.319 10.7656 116.698 17.1743 116.698 25.0527V101.947Z" fill="black"/>
</g>
<path fill-rule="evenodd" clip-rule="evenodd" d="M64.315 38.4999C66.0411 38.4999 67.44 36.3546 67.44 33.7075V18.2923C67.44 15.6453 66.0411 13.4999 64.315 13.4999C62.5889 13.4999 61.19 15.6453 61.19 18.2923V33.7075C61.19 36.3546 62.5889 38.4999 64.315 38.4999Z" fill="black"/>
</svg>
