<svg width="128" height="128" viewBox="0 0 128 128" fill="none" xmlns="http://www.w3.org/2000/svg">
<g clip-path="url(#clip0_1_271)">
<path d="M57.1696 123.518C72.5982 123.518 85.134 110.982 85.134 95.5536C85.134 87.4107 81.7591 80.2857 75.384 74.5001C74.2055 73.4286 73.9374 72.8393 73.9374 71.2322L74.0446 23.125C74.0446 11.9285 67.2412 4.48206 57.1696 4.48206C47.0446 4.48206 40.2412 11.9285 40.2412 23.125L40.2947 71.2322C40.2947 72.8393 40.0268 73.4286 38.902 74.5001C32.4732 80.2857 29.1518 87.4107 29.1518 95.5536C29.1518 110.982 41.6341 123.518 57.1696 123.518ZM57.1696 115.75C46.0268 115.75 36.9733 106.643 36.9733 95.5536C36.9733 88.8571 40.134 82.8037 45.8126 79C47.4734 77.875 48.1161 76.8571 48.1161 74.6608V23.4464C48.1161 16.6965 51.8126 12.3573 57.1696 12.3573C62.4732 12.3573 66.1161 16.6965 66.1161 23.4464V74.6608C66.1161 76.8571 66.7589 77.875 68.4197 79C74.0983 82.8037 77.259 88.8571 77.259 95.5536C77.259 106.643 68.259 115.75 57.1696 115.75ZM84.0089 24.1429H95.6876C97.5625 24.1429 98.8483 22.6965 98.8483 21.0357C98.8483 19.3751 97.5625 17.9287 95.6876 17.9287H84.0089C82.134 17.9287 80.8483 19.3751 80.8483 21.0357C80.8483 22.6965 82.134 24.1429 84.0089 24.1429ZM84.0089 39.1966H95.6876C97.5625 39.1966 98.8483 37.7499 98.8483 36.0894C98.8483 34.4286 97.5625 32.9822 95.6876 32.9822H84.0089C82.134 32.9822 80.8483 34.4286 80.8483 36.0894C80.8483 37.7499 82.134 39.1966 84.0089 39.1966ZM57.1161 108.518C64.2947 108.518 70.0805 102.732 70.0805 95.5001C70.0805 90.4642 67.2412 86.3392 63.1161 84.0894C61.4019 83.1787 60.8126 82.5358 60.8126 79.9106V51.4642C60.8126 48.6786 59.2053 47.0178 57.1161 47.0178C55.0803 47.0178 53.4197 48.6786 53.4197 51.4642V79.9106C53.4197 82.5358 52.8304 83.1787 51.1161 84.0894C46.9911 86.3392 44.1518 90.4642 44.1518 95.5001C44.1518 102.732 49.9374 108.518 57.1161 108.518ZM84.0089 54.2501H95.6876C97.5625 54.2501 98.8483 52.8037 98.8483 51.1429C98.8483 49.4823 97.5625 47.9822 95.6876 47.9822H84.0089C82.134 47.9822 80.8483 49.4823 80.8483 51.1429C80.8483 52.8037 82.134 54.2501 84.0089 54.2501ZM84.0089 69.3035H95.6876C97.5625 69.3035 98.8483 67.8037 98.8483 66.1429C98.8483 64.4821 97.5625 63.0359 95.6876 63.0359H84.0089C82.134 63.0359 80.8483 64.4821 80.8483 66.1429C80.8483 67.8037 82.134 69.3035 84.0089 69.3035Z" fill="black"/>
</g>
<defs>
<clipPath id="clip0_1_271">
<rect width="128" height="128" fill="white"/>
</clipPath>
</defs>
</svg>
