<svg width="128" height="128" viewBox="0 0 128 128" fill="none" xmlns="http://www.w3.org/2000/svg">
<path fill-rule="evenodd" clip-rule="evenodd" d="M108.53 28.0733V107.464C108.53 116.598 101.243 124 92.2564 124H59.7094C50.7224 124 43.4359 116.896 43.4359 108.138V92.2479C43.4359 92.1686 43.4318 92.1091 43.4318 92.0297C25.1282 90.0584 10.8889 74.9776 10.8889 56.6482V5L31.2308 5.00395V12.9331H19.0256V56.6482C19.0256 71.9432 31.7759 84.3466 47.5043 84.3466C63.2326 84.3466 75.9829 71.9432 75.9829 56.6482V12.9331H63.7778V5.00395L84.1197 5V56.6482C84.1197 74.9776 69.8844 90.0544 51.5849 92.0297C51.5849 92.113 51.5726 92.2043 51.5726 92.2876V108.134C51.5726 112.513 55.2179 116.063 59.7094 116.063H92.2564C95.8162 116.063 100.393 112.414 100.393 107.46V28.0733C95.6657 26.4391 92.2564 22.0759 92.2564 16.9036C92.2564 10.335 97.7202 5.00395 104.462 5.00395C111.203 5.00395 116.667 10.335 116.667 16.9036C116.667 22.0799 113.257 26.4391 108.53 28.0733Z" fill="black"/>
</svg>
