<svg width="128" height="128" viewBox="0 0 128 128" fill="none" xmlns="http://www.w3.org/2000/svg">
<path fill-rule="evenodd" clip-rule="evenodd" d="M124.145 41.8427C122.4 22.6048 108.789 8.65302 91.7544 8.65302C81.4225 8.65302 71.6227 13.8089 65.5372 22.4476C65.0634 23.1213 64.4594 23.2246 64.1315 23.2246C63.7902 23.247 63.1973 23.128 62.7235 22.4341C56.7256 13.6764 47.4019 8.65302 37.1397 8.65302C20.1047 8.65302 6.49649 22.6048 4.74943 41.8427C4.61245 42.6803 4.04657 47.1467 5.76893 54.4516C8.25253 64.9789 13.9877 74.5473 22.3548 82.1261L64.0888 120L106.539 82.1261C108.686 80.1814 110.655 78.0998 112.445 75.9103C112.479 75.8766 112.497 75.8362 112.528 75.8003C117.668 69.4835 121.29 62.2303 123.127 54.4516C124.85 47.1467 124.282 42.6803 124.145 41.8427ZM64.1179 113.957L25.3727 78.7959C24.5733 78.0728 23.8188 77.3183 23.0732 76.557H30.0323C30.9148 76.557 31.712 76.0428 32.0757 75.2411L41.1277 55.3273L52.6475 84.1291C52.9709 84.933 53.7254 85.481 54.5899 85.5349C54.6371 85.5371 54.6865 85.5394 54.7314 85.5394C55.542 85.5394 56.2966 85.0992 56.694 84.3851L66.0266 67.586L70.7648 75.5465C71.2409 76.3415 72.1616 76.7704 73.062 76.6132C73.9737 76.4627 74.6991 75.7666 74.8899 74.8594L81.3617 44.059L86.1942 74.6618C86.3648 75.7531 87.3057 76.557 88.4106 76.557H105.821C105.077 77.3161 104.325 78.0661 103.53 78.7869L64.1179 113.957ZM118.753 53.4209C117.161 60.1733 114.069 66.4879 109.735 72.0659H90.3374L83.8993 31.2952C83.7309 30.224 82.8237 29.4269 81.7391 29.3999C80.5826 29.3213 79.709 30.123 79.4845 31.1829L71.6833 68.3023L67.8928 61.9338C67.4796 61.2445 66.8127 60.8672 65.9302 60.838C65.1263 60.8492 64.3897 61.2916 64.0012 61.9922L55.0661 78.0751L43.3464 48.777C43.0118 47.9416 42.2124 47.387 41.3141 47.3668C40.4496 47.3017 39.5873 47.8631 39.2168 48.6827L28.5885 72.0659H19.166C14.8298 66.4856 11.7376 60.1711 10.1455 53.4164C8.5085 46.4932 9.17993 42.577 9.18442 42.5523L9.2181 42.3255C10.7204 25.414 22.4648 13.1419 37.1419 13.1419C45.8974 13.1419 53.8714 17.4534 59.0183 24.9694C60.2017 26.7007 62.0521 27.7 64.091 27.7135C66.1008 27.6776 67.9961 26.7501 69.2087 25.0345C74.4544 17.5904 82.8843 13.1442 91.7543 13.1442C106.431 13.1442 118.178 25.4185 119.707 42.5433C119.719 42.5815 120.39 46.4955 118.753 53.4209Z" fill="black"/>
</svg>
