<svg width="128" height="128" viewBox="0 0 128 128" fill="none" xmlns="http://www.w3.org/2000/svg">
<path fill-rule="evenodd" clip-rule="evenodd" d="M64.4991 117L13.5017 65.2757C1.05973 52.6542 1.05973 32.1153 13.5017 19.4964C19.5366 13.3723 27.5655 10 36.1049 10C44.6468 10 52.6782 13.3723 58.7156 19.4964L60.8656 21.6756L55.3059 40.2673H62.8043L57.7752 57.9232H64.4991V70.3455L77.1623 52.8787H70.4887L78.0323 37.745H70.549L83.1771 11.5235L84.2684 11.2157C95.3902 8.06541 107.357 11.241 115.496 19.4964C127.941 32.1178 127.941 52.6542 115.496 65.2757L64.4991 117ZM55.1399 23.0427C50.0555 17.8846 43.2939 15.0445 36.1073 15.0445C28.9207 15.0445 22.1617 17.8846 17.0773 23.0427C6.56146 33.7069 6.56146 51.0626 17.0773 61.7294L64.499 109.827L111.921 61.7294C122.439 51.0626 122.439 33.7094 111.921 23.0427C105.33 16.3587 95.7597 13.6321 86.7099 15.7886L78.5653 32.7005H86.1693L78.6257 47.8341H87.0393L59.4699 85.8574V62.9678H51.1065L56.1356 45.3119H48.5467L55.1927 23.0956L55.1399 23.0427Z" fill="black"/>
</svg>
