<svg width="128" height="128" viewBox="0 0 128 128" fill="none" xmlns="http://www.w3.org/2000/svg">
<g clip-path="url(#clip0_1_205)">
<path fill-rule="evenodd" clip-rule="evenodd" d="M115.595 16.176H108.19V5.44C108.19 4.22 107.203 3 105.722 3H86.7152C85.481 3 84.2468 3.976 84.2468 5.44V16.176H44.7532V5.44C44.7532 4.22 43.7658 3 42.2848 3H23.0316C21.7975 3 20.5633 3.976 20.5633 5.44V16.176H13.1582C9.20886 16.176 6 19.348 6 23.252C6 61.316 6 72.296 6 90.108C6 94.012 9.20886 97.184 13.1582 97.184H31.6709C42.7785 113.776 62.0316 124.268 63.2658 125C63.7595 125 64.0063 125 64.5 125C64.9937 125 65.2405 125 65.7342 124.756C66.9684 124.024 86.2215 113.532 97.3291 96.94H115.842C119.791 96.94 123 93.768 123 89.864C123 72.296 123 61.316 123 23.008C122.753 19.348 119.544 16.176 115.595 16.176ZM89.5714 6.69697H104.429V15.9394H89.5714V6.69697ZM24.5714 6.69697H39.4286V15.9394H24.5714V6.69697ZM13.8103 21.4848C49.8809 21.4848 24.5071 21.4848 87.6928 21.4848C127.495 21.4848 100.629 21.4848 116.798 21.4848C118.042 21.4848 119.286 22.4707 119.286 23.9495V36.2727H11.5714V23.9495C11.5714 22.4707 12.5665 21.4848 13.8103 21.4848ZM96.5378 85.5259H85.8125L78.4998 74.0772C78.0123 73.3617 77.281 72.8847 76.306 72.8847C75.5747 72.8847 74.5996 73.3617 74.3559 74.0772L65.0931 91.7273L51.1989 65.4907C50.7114 64.7752 49.9801 64.2981 49.0051 64.2981C48.0301 64.2981 47.2988 64.7752 46.8113 65.4907L36.5735 85.2874H30.967C29.2607 81.4712 28.2857 77.4164 28.2857 73.1232C28.2857 63.1056 36.5735 54.7576 47.055 54.7576C52.6615 54.7576 58.0241 57.3812 61.6805 61.6745C62.6555 62.8671 64.3618 62.8671 65.3369 61.6745C68.9932 57.1427 74.3559 54.7576 79.9623 54.7576C90.2001 54.7576 98.7316 62.8671 98.7316 73.1232C99.2192 77.4164 98.2441 81.4712 96.5378 85.5259ZM64.2549 119.455C59.5971 116.729 42.4371 105.581 33.8571 90.2218H38.5149C39.4954 90.2218 40.2309 89.7263 40.7211 88.9831L49.5463 71.3939L63.5194 98.6448C64.0097 99.388 64.7452 99.8835 65.7257 99.8835C66.7063 99.8835 67.4417 99.388 67.932 98.6448L77.4926 80.0647L83.376 89.4786C83.8663 90.2218 84.6017 90.7173 85.3371 90.7173H95.1429C86.0726 105.829 68.9126 116.729 64.2549 119.455ZM115.19 91.7273H99.2689C99.7664 91.0017 100.015 90.2761 100.513 89.3087C102.752 84.4715 104.244 79.1507 104.244 73.5879C104.244 60.7695 93.5473 50.3696 80.3629 50.3696C74.1438 50.3696 68.1735 52.7882 63.6958 57.1416C59.2181 52.7882 53.2478 50.3696 47.0287 50.3696C33.8443 50.3696 23.1475 60.7695 23.1475 73.5879C23.1475 80.1181 25.1376 86.1645 28.1227 91.7273H12.2019C10.9581 91.7273 9.71429 90.7598 9.71429 89.3087V39.9697H117.429V89.3087C117.429 90.7598 116.434 91.7273 115.19 91.7273Z" fill="black"/>
</g>
<defs>
<clipPath id="clip0_1_205">
<rect width="117" height="122" fill="white" transform="translate(6 3)"/>
</clipPath>
</defs>
</svg>
