<svg width="128" height="128" viewBox="0 0 128 128" fill="none" xmlns="http://www.w3.org/2000/svg">
<g clip-path="url(#clip0_1_191)">
<path d="M79.2656 4C85.8304 4 91.3063 8.52987 92.492 14.6126C93.1745 14.4974 93.8206 14.4418 94.4625 14.4418C94.52 14.4418 94.5746 14.4485 94.6307 14.4499C94.6882 14.4485 94.7428 14.4418 94.7989 14.4418C94.9152 14.4418 95.0273 14.4567 95.1381 14.4743C101.884 14.8174 107.268 20.2194 107.268 26.8311C107.268 27.5282 107.201 28.228 107.06 28.9414C113.225 29.8298 117.971 34.9876 117.971 41.1978C117.971 41.9506 117.885 42.7155 117.713 43.5116C121.675 46.6215 124 51.2938 124 56.2793C124 60.5637 122.224 64.6786 119.085 67.7546C122.205 71.2659 123.913 75.6737 123.913 80.2646C123.913 86.5969 120.786 92.3759 115.466 96.0256C115.951 97.6585 116.142 99.3118 116.031 100.96C115.765 104.914 113.923 108.532 110.845 111.145C107.767 113.759 103.805 115.048 99.7365 114.797C99.089 114.757 98.4443 114.67 97.773 114.529C94.7765 119.727 89.103 123 82.8521 123C73.6314 123 66.0929 115.896 65.7763 107.046L65.766 106.466V87.5532H69.9689L69.9692 106.467C69.9692 113.341 75.7477 118.933 82.8507 118.933C88.0322 118.933 92.6896 115.949 94.7148 111.332C95.1423 110.361 96.2649 109.865 97.302 110.193C98.3182 110.512 99.1787 110.685 100.011 110.738C102.97 110.928 105.839 109.985 108.073 108.088C110.307 106.192 111.643 103.568 111.836 100.698C111.936 99.2263 111.68 97.7331 111.106 96.2575C109.427 92.0328 105.162 89.1941 100.479 89.1941C99.3189 89.1941 98.377 88.2827 98.377 87.1598C98.377 86.0368 99.3189 85.1254 100.479 85.1254C105.885 85.1254 110.877 87.8935 113.692 92.2281C117.494 89.327 119.711 84.9925 119.711 80.2673C119.711 76.4874 118.228 72.8622 115.537 70.0276C113.02 71.4558 110.102 72.2898 106.98 72.2898C97.6104 72.2898 89.9888 64.9146 89.9888 55.848C89.9888 54.7237 90.9306 53.8137 92.0911 53.8137C93.2516 53.8137 94.1934 54.7237 94.1934 55.848C94.1934 62.67 99.9299 68.2211 106.98 68.2211C113.844 68.2211 119.462 62.9583 119.753 56.3839L119.765 55.848C119.619 51.881 117.552 48.2327 114.14 46.0098C113.365 45.5053 113.027 44.5654 113.312 43.7042C113.619 42.7684 113.763 41.9723 113.763 41.1965C113.763 36.6083 109.905 32.8745 105.163 32.8745C104.905 32.9098 104.76 32.9274 104.614 32.9369C103.933 32.979 103.291 32.7077 102.861 32.2073C102.43 31.7068 102.273 31.0368 102.439 30.4062C102.439 30.4062 102.444 30.3872 102.453 30.3587C102.447 30.3099 102.444 30.2583 102.443 30.2027C102.439 29.9654 102.477 29.7294 102.556 29.5043C102.896 28.5481 103.06 27.6747 103.06 26.8311C103.06 22.2985 99.2908 18.6068 94.6279 18.5186C89.965 18.6068 86.1962 22.2985 86.1962 26.8325C86.1962 27.9568 85.2544 28.8668 84.0939 28.8668C82.9334 28.8668 81.9916 27.9568 81.9916 26.8325C81.9916 22.2334 84.5999 18.2203 88.4555 16.0828C87.9453 11.5448 84.0266 8.0701 79.2642 8.0701C74.3041 8.0701 70.2392 11.8501 69.9821 16.5891L69.9692 17.0661L69.9689 34.383H65.766V17.0647C65.766 9.86035 71.822 4 79.2656 4ZM49.7359 4C56.9941 4 62.9331 9.57087 63.223 16.5267L63.234 17.0644V34.383H59.0285L59.0304 17.0631C59.0304 12.1034 54.8604 8.0673 49.7345 8.0673C44.9716 8.0673 41.0525 11.5419 40.5423 16.0798C44.3983 18.2172 47.0068 22.2303 47.0068 26.8292C47.0068 27.9535 46.0663 28.8635 44.9043 28.8635C43.7423 28.8635 42.8018 27.9535 42.8018 26.8292C42.8018 22.2954 39.0341 18.6038 34.3693 18.5156C29.7045 18.6024 25.9368 22.2954 25.9368 26.8279C25.9368 27.6687 26.1008 28.5435 26.44 29.5023C26.5227 29.7329 26.5606 29.9756 26.5536 30.2198C26.5522 30.2577 26.548 30.3011 26.5438 30.3486C26.5508 30.3717 26.555 30.3893 26.555 30.3906C26.7274 31.0226 26.5732 31.6953 26.1429 32.1998C25.714 32.703 25.065 32.9756 24.3852 32.9349L24.1662 32.9154L23.9493 32.8888H23.9184C19.077 32.8888 15.235 36.617 15.235 41.1956C15.235 41.9714 15.378 42.7675 15.6864 43.7046C15.9695 44.5658 15.6331 45.5043 14.858 46.0089C11.4449 48.2344 9.37744 51.8853 9.23306 55.8387C9.23306 55.8414 9.23446 55.8441 9.23446 55.8469C9.23446 62.6686 14.9701 68.2196 22.022 68.2196C29.0738 68.2196 34.8094 62.6686 34.8094 55.8469C34.8094 54.7226 35.75 53.8125 36.912 53.8125C38.074 53.8125 39.0145 54.7226 39.0145 55.8469C39.0145 64.9132 31.3922 72.2883 22.022 72.2883C18.899 72.2883 15.9793 71.4542 13.4619 70.0261C10.7735 72.8593 9.28773 76.4844 9.28773 80.2642C9.28773 84.9771 11.4968 89.3007 15.2827 92.2016C18.1519 87.8183 23.1461 85.0964 28.6659 85.0964C29.8279 85.0964 30.7684 86.0078 30.7684 87.1308C30.7684 88.2537 29.8279 89.1651 28.6659 89.1651C23.9395 89.1651 19.8984 91.7378 18.0174 95.8824C18.009 95.9055 18.0118 95.9312 18.0019 95.9543C17.339 97.5262 17.0572 99.1211 17.1637 100.694C17.3572 103.564 18.693 106.188 20.9272 108.084C23.1601 109.98 26.0181 110.923 28.9883 110.734C29.8223 110.681 30.6829 110.508 31.6977 110.189C31.9136 110.12 32.1336 110.089 32.3495 110.089C33.1737 110.089 33.9474 110.559 34.2852 111.328C36.3092 115.945 40.967 118.929 46.149 118.929C53.0658 118.929 58.7267 113.627 59.0199 107.004L59.0318 106.464L59.0285 87.5532H63.234V106.466C63.234 115.583 55.5683 123 46.1462 123C39.8947 123 34.2207 119.727 31.224 114.528C30.5498 114.667 29.8994 114.757 29.2616 114.798C25.1813 115.05 21.23 113.76 18.1519 111.145C15.0738 108.532 13.2334 104.915 12.9671 100.961C12.855 99.3123 13.0442 97.6591 13.5306 96.0262C8.20984 92.3752 5.0827 86.5978 5.0827 80.2656C5.0827 75.6748 6.79134 71.2671 9.91288 67.7558C6.77452 64.6772 5 60.5624 5 56.2781C5 51.2927 7.32538 46.6205 11.2879 43.5107C11.1155 42.7132 11.03 41.9483 11.03 41.197C11.03 34.9869 15.7761 29.8292 21.9421 28.9409C21.8019 28.2275 21.7332 27.5277 21.7332 26.8306C21.7332 20.219 27.117 14.8172 33.8633 14.4741C33.9741 14.4564 34.0862 14.4415 34.2025 14.4415L34.2871 14.4451L34.3707 14.4497L34.5389 14.4415C35.1809 14.4415 35.8271 14.4971 36.5111 14.6124C37.6955 8.52977 43.1704 4 49.7359 4Z" fill="black"/>
<path d="M88.5532 55.262H71.575L76.646 29.3192H51.0922L42.9787 70.8277H58.318L59.0318 102.745L88.5532 55.262ZM48.8709 65.6391L54.9561 34.5077H70.7541L65.6831 60.4506H79.638L63.234 87.158V65.6391H48.8709Z" fill="black"/>
</g>
<defs>
<clipPath id="clip0_1_191">
<rect width="119" height="119" fill="white" transform="translate(5 4)"/>
</clipPath>
</defs>
</svg>
