<svg width="128" height="128" viewBox="0 0 128 128" fill="none" xmlns="http://www.w3.org/2000/svg">
<path fill-rule="evenodd" clip-rule="evenodd" d="M63.5 14.8627C58.8436 14.8627 55.1961 12.2581 55.1961 8.93137C55.1961 5.60466 58.8436 3 63.5 3C68.1564 3 71.8039 5.60466 71.8039 8.93137C71.8039 12.2581 68.1564 14.8627 63.5 14.8627ZM63.5001 6.95447C60.9651 6.95447 59.3475 8.12407 59.3475 8.93137C59.3475 9.73796 60.9651 10.9083 63.5001 10.9083C66.0338 10.9083 67.6514 9.73796 67.6514 8.93137C67.6514 8.12407 66.0321 6.95447 63.5001 6.95447Z" fill="black"/>
<path fill-rule="evenodd" clip-rule="evenodd" d="M15.1301 124C14.8758 124 14.6206 123.987 14.3625 123.963C11.2944 123.675 8.5843 121.717 7.28479 118.852C1.55541 106.192 1.57127 89.4486 7.33546 69.0836C11.5849 54.0688 17.3917 42.8739 17.6387 42.4058C25.2032 25.7272 33.0384 16.1084 40.8747 13.9129C44.9224 12.7817 47.5993 14.0624 48.3919 14.5304C52.6449 16.3588 55.2432 20.2554 56.0331 25.9083C56.725 20.646 56.4946 14.5715 56.1153 9.95095C56.0404 9.04931 56.5649 8.20675 57.401 7.88149C58.2381 7.55455 59.1862 7.83031 59.7282 8.54875C60.2676 9.2679 61.6448 9.99017 63.5012 9.99017C65.3577 9.99017 66.7349 9.2679 67.2733 8.55042C67.8144 7.83198 68.7578 7.55742 69.5986 7.8834C70.4357 8.20675 70.9592 9.04931 70.8844 9.95382C70.506 14.5754 70.2756 20.6505 70.9675 25.913C71.7555 20.2554 74.3557 16.3607 78.6094 14.5304C79.4032 14.0624 82.0836 12.7817 86.1259 13.911C93.9537 16.1046 101.784 25.7066 109.391 42.4563C109.887 43.413 115.518 54.4292 119.665 69.0836C125.427 89.4486 125.446 106.194 119.715 118.852C118.416 121.717 115.707 123.675 112.64 123.963C109.747 124.223 107.028 122.971 105.367 120.585L105.206 120.346C104.35 119.034 103.027 118.254 101.576 118.197C95.3448 117.963 83.6119 115.985 75.0614 105.389C65.4001 93.4163 62.6909 74.1265 67.0105 48.0496C67.2342 46.6911 66.9236 45.3018 66.154 44.2397L63.5012 40.5729L60.8485 44.2397C60.0806 45.3018 59.768 46.6911 59.992 48.0496C64.3115 74.1265 61.605 93.4163 51.9428 105.389C43.3925 115.985 31.6593 117.963 25.427 118.197C23.9757 118.253 22.6549 119.034 21.8048 120.337L21.631 120.594C20.1214 122.759 17.7303 124 15.1301 124ZM44.0539 17.5312C43.4081 17.5312 42.6331 17.6266 41.7404 17.9002C38.0323 19.0288 30.4429 23.9502 21.2526 44.2051C20.9722 44.7518 -1.79944 88.988 10.9522 117.16C11.6496 118.704 13.099 119.757 14.7335 119.911C16.1874 120.044 17.5056 119.439 18.337 118.246C19.9891 115.722 22.5438 114.236 25.2733 114.131C30.827 113.92 41.2687 112.173 48.8174 102.818C57.7146 91.7936 60.1353 73.5929 56.0146 48.7221C55.6114 46.2913 56.1865 43.782 57.5907 41.8397L61.8724 35.9231C62.6299 34.8723 64.3679 34.8723 65.1273 35.9231L69.4089 41.8397C70.8141 43.7839 71.3866 46.2913 70.986 48.7221C66.8653 73.5929 69.286 91.7936 78.1842 102.818C85.7328 112.173 96.1736 113.92 101.725 114.131C104.454 114.236 107.012 115.717 108.563 118.099C109.493 119.439 110.814 120.04 112.266 119.911C113.901 119.759 115.349 118.704 116.046 117.16C128.8 88.988 106.028 44.7518 105.796 44.3079C105.78 44.2725 105.762 44.2397 105.748 44.2051C96.4438 23.6998 88.786 18.8829 85.0492 17.8366C82.251 17.0509 80.6806 18.0159 80.6686 18.0281C80.5521 18.1095 80.427 18.1767 80.2959 18.2319C75.632 20.1658 74.7024 25.7562 74.745 30.1067C74.7625 31.9323 73.4843 33.4457 71.7065 33.698C69.9592 33.9484 68.359 32.8712 67.8873 31.1447C66.4675 25.9355 66.3399 19.2512 66.6072 13.5943C64.6703 14.2025 62.3284 14.2025 60.3905 13.5943C60.6598 19.2512 60.5321 25.9355 59.1114 31.1447C58.6397 32.8712 57.0385 33.9417 55.2931 33.698C53.5153 33.4457 52.2371 31.9351 52.2556 30.1067C52.298 25.7562 51.3686 20.1658 46.7038 18.2319C46.5736 18.1786 46.4485 18.1095 46.332 18.0281C46.3098 18.0159 45.5116 17.5312 44.0539 17.5312Z" fill="black"/>
<path fill-rule="evenodd" clip-rule="evenodd" d="M14.567 90.7843C13.4211 90.7843 12.4902 89.8566 12.4902 88.7096C12.4902 87.5607 13.4211 86.6328 14.567 86.6328C19.1919 86.6328 22.588 85.4199 24.6619 83.029C27.6719 79.5573 27.0508 74.5188 27.0432 74.4712C27.0281 74.3739 27.0223 74.2739 27.0223 74.1769V63.7966C27.0223 59.4888 29.1924 51.3398 37.402 51.3398C37.7858 51.3188 41.5533 50.912 41.5533 43.0355C41.5533 41.8885 42.4842 40.9608 43.6301 40.9608C44.776 40.9608 45.7059 41.8885 45.7059 43.0355C45.7059 55.3504 37.4859 55.4923 37.402 55.4923C31.2453 55.4923 31.1748 63.4586 31.1748 63.7966V74.0501C31.2995 75.1504 31.7645 81.1769 27.7987 85.7487C24.9009 89.0906 20.4483 90.7843 14.567 90.7843Z" fill="black"/>
<path fill-rule="evenodd" clip-rule="evenodd" d="M16.8606 107.392C16.5609 107.392 16.2556 107.323 15.9676 107.178C14.9812 106.675 14.5806 105.454 15.0739 104.449C15.26 104.071 19.7053 95.1899 26.8515 95.1899C32.4036 95.1899 36.2089 93.7604 38.1653 90.9422C41.2384 86.5114 38.9785 79.6702 38.9539 79.6031C37.618 75.5213 37.8902 72.1414 39.746 69.5182C43.1288 64.7412 50.5125 64.6863 50.826 64.6863C51.9289 64.6863 52.8235 65.595 52.8235 66.7195C52.8235 67.8449 51.9289 68.7539 50.826 68.7539C49.2592 68.7613 44.7881 69.3418 42.9803 71.9052C41.9213 73.4059 41.8371 75.5521 42.7301 78.2789C42.8418 78.5999 45.7287 87.0845 41.4273 93.2881C38.6807 97.2504 33.7787 99.2578 26.8515 99.2578C22.2229 99.2578 18.6849 106.198 18.6511 106.267C18.299 106.982 17.594 107.392 16.8606 107.392Z" fill="black"/>
<path fill-rule="evenodd" clip-rule="evenodd" d="M27.2001 100.275C26.1533 100.275 25.3024 99.4262 25.3024 98.3759C25.3024 96.2831 23.5996 94.5804 21.5057 94.5804C20.458 94.5804 19.6078 93.7323 19.6078 92.6829C19.6078 91.6326 20.458 90.7843 21.5057 90.7843C25.6933 90.7843 29.098 94.1903 29.098 98.3759C29.098 99.4262 28.2479 100.275 27.2001 100.275Z" fill="black"/>
<path fill-rule="evenodd" clip-rule="evenodd" d="M21.5847 74.1765C20.4934 74.1765 19.6078 73.2929 19.6078 72.1997C19.6078 66.7486 24.0423 62.3137 29.4928 62.3137C30.585 62.3137 31.4706 63.1975 31.4706 64.2908C31.4706 65.384 30.585 66.2676 29.4928 66.2676C26.2233 66.2676 23.5625 68.9287 23.5625 72.1997C23.5625 73.2929 22.6769 74.1765 21.5847 74.1765Z" fill="black"/>
<path fill-rule="evenodd" clip-rule="evenodd" d="M43.808 62.3137C39.6211 62.3137 36.2157 57.8785 36.2157 52.4279C36.2157 51.3347 37.0658 50.451 38.1136 50.451C39.1613 50.451 40.0121 51.3347 40.0121 52.4279C40.0121 55.6431 41.7506 58.3592 43.808 58.3592C44.8557 58.3592 45.7059 59.2429 45.7059 60.3361C45.7059 61.4303 44.8557 62.3137 43.808 62.3137Z" fill="black"/>
<path fill-rule="evenodd" clip-rule="evenodd" d="M112.434 90.7843C106.552 90.7843 102.101 89.0906 99.201 85.7487C95.237 81.1769 95.7018 75.1524 95.8257 74.0501V63.7966C95.8238 63.4623 95.7087 55.4923 89.5983 55.4923C89.5144 55.4923 81.2941 55.3504 81.2941 43.0355C81.2941 41.8885 82.224 40.9608 83.37 40.9608C84.516 40.9608 85.4466 41.8885 85.4466 43.0355C85.4466 50.912 89.2145 51.3188 89.6439 51.3398C97.8082 51.3398 99.9782 59.4888 99.9782 63.7966V74.1769C99.9782 74.2739 99.9716 74.3739 99.9572 74.4712C99.9536 74.5149 99.3114 79.5651 102.362 83.0555C104.438 85.4304 107.826 86.6347 112.434 86.6347C113.58 86.6347 114.51 87.5624 114.51 88.7113C114.51 89.8585 113.58 90.7843 112.434 90.7843Z" fill="black"/>
<path fill-rule="evenodd" clip-rule="evenodd" d="M110.14 107.392C109.408 107.392 108.704 106.983 108.351 106.273C107.384 104.321 104.028 99.2592 100.148 99.2592C93.2222 99.2592 88.3165 97.2517 85.5718 93.2873C81.2685 87.0825 84.1573 78.5967 84.282 78.2412C85.163 75.5487 85.0769 73.3986 84.0132 71.8971C81.848 68.8391 76.23 68.7541 76.1741 68.7541C75.0713 68.7541 74.1764 67.8451 74.1764 66.7196C74.1764 65.5951 75.0713 64.6863 76.1741 64.6863C76.4877 64.6863 83.8722 64.7412 87.2541 69.5183C89.1114 72.1417 89.3818 75.5217 88.06 79.5645C88.0232 79.6662 85.7323 86.4881 88.8465 90.959C90.8028 93.767 94.6046 95.1911 100.148 95.1911C107.294 95.1911 111.737 104.073 111.926 104.451C112.419 105.454 112.019 106.674 111.035 107.175C110.744 107.322 110.441 107.392 110.14 107.392Z" fill="black"/>
<path fill-rule="evenodd" clip-rule="evenodd" d="M99.7997 100.275C98.7519 100.275 97.9019 99.4262 97.9019 98.3759C97.9019 94.1903 101.307 90.7843 105.494 90.7843C106.542 90.7843 107.392 91.6326 107.392 92.6829C107.392 93.7323 106.542 94.5804 105.494 94.5804C103.4 94.5804 101.698 96.2831 101.698 98.3759C101.698 99.4262 100.848 100.275 99.7997 100.275Z" fill="black"/>
<path fill-rule="evenodd" clip-rule="evenodd" d="M105.415 74.1765C104.323 74.1765 103.438 73.2929 103.438 72.1997C103.438 68.9287 100.777 66.2676 97.5072 66.2676C96.4149 66.2676 95.5294 65.384 95.5294 64.2908C95.5294 63.1975 96.4149 62.3137 97.5072 62.3137C102.957 62.3137 107.392 66.7486 107.392 72.1997C107.392 73.2929 106.507 74.1765 105.415 74.1765Z" fill="black"/>
<path fill-rule="evenodd" clip-rule="evenodd" d="M83.192 62.3137C82.1443 62.3137 81.2941 61.4303 81.2941 60.3361C81.2941 59.2429 82.1443 58.3592 83.192 58.3592C85.2491 58.3592 86.9876 55.6431 86.9876 52.4279C86.9876 51.3347 87.8387 50.451 88.8864 50.451C89.9341 50.451 90.7843 51.3347 90.7843 52.4279C90.7843 57.8785 87.3778 62.3137 83.192 62.3137Z" fill="black"/>
</svg>
