<svg width="128" height="128" viewBox="0 0 128 128" fill="none" xmlns="http://www.w3.org/2000/svg">
<path d="M42.6654 67.582H83.7375C89.233 67.582 93.716 63.7022 93.716 58.9459V23.4006C93.716 18.6445 89.233 14.7646 83.7375 14.7646H42.6654C37.1698 14.7646 32.6866 18.6445 32.6866 23.4006V58.9459C32.6866 63.7022 37.1698 67.582 42.6654 67.582ZM38.5799 23.4006C38.5799 21.4606 40.4238 19.8648 42.6654 19.8648H83.7375C85.9789 19.8648 87.823 21.4606 87.823 23.4006V58.9459C87.823 60.8858 85.9789 62.4816 83.7375 62.4816H42.6654C40.4238 62.4816 38.5799 60.8858 38.5799 58.9459V23.4006Z" fill="black"/>
<path d="M63.1294 27.2486C62.3909 27.2486 61.6525 27.8018 61.2832 28.5394C58.514 37.7595 52.7909 40.1567 52.7909 46.6108C52.7909 52.3272 57.4063 56.7529 63.1294 56.7529C68.8525 56.7529 73.4679 52.3272 73.4679 46.6108C73.4679 40.1567 67.5602 37.7595 64.7909 28.5394C64.6063 27.8018 63.8679 27.2486 63.1294 27.2486Z" fill="black"/>
<path fill-rule="evenodd" clip-rule="evenodd" d="M78.9718 84.4673C82.6052 84.4673 85.5508 81.5468 85.5508 77.9449C85.5508 74.3429 82.6052 71.423 78.9718 71.423C75.3383 71.423 72.3928 74.3429 72.3928 77.9449C72.3928 81.5468 75.3383 84.4673 78.9718 84.4673ZM78.9718 81.2061C80.7885 81.2061 82.2615 79.7458 82.2615 77.9449C82.2615 76.1439 80.7885 74.6842 78.9718 74.6842C77.1551 74.6842 75.6821 76.1439 75.6821 77.9449C75.6821 79.7458 77.1551 81.2061 78.9718 81.2061Z" fill="black"/>
<path fill-rule="evenodd" clip-rule="evenodd" d="M47.0161 84.4673C50.6496 84.4673 53.5951 81.5468 53.5951 77.9449C53.5951 74.3429 50.6496 71.423 47.0161 71.423C43.3826 71.423 40.437 74.3429 40.437 77.9449C40.437 81.5468 43.3826 84.4673 47.0161 84.4673ZM47.0161 81.2061C48.8329 81.2061 50.3056 79.7458 50.3056 77.9449C50.3056 76.1439 48.8329 74.6842 47.0161 74.6842C45.1993 74.6842 43.7265 76.1439 43.7265 77.9449C43.7265 79.7458 45.1993 81.2061 47.0161 81.2061Z" fill="black"/>
<path d="M84.606 4.20068H40.8293C30.9983 4.20068 23 12.0408 23 21.6773V74.2558C23 88.2057 34.5781 99.5545 48.8093 99.5545H55.2614V123.367C55.2614 124.38 56.0989 125.201 57.1317 125.201H68.3034C69.3362 125.201 70.1737 124.38 70.1737 123.367V99.5545H76.6258C90.8569 99.5545 102.435 88.2057 102.435 74.2558V21.6773C102.435 12.0408 94.4371 4.20068 84.606 4.20068ZM66.4333 121.534H59.0022V99.5545H66.4333V121.534ZM98.6945 74.2558C98.6945 86.184 88.7951 95.8877 76.6258 95.8877C57.3857 95.8877 63.2189 95.8877 48.8093 95.8877C36.6404 95.8877 26.7407 86.184 26.7407 74.2558V21.6773C26.7407 14.0629 33.0613 7.86735 40.8293 7.86735H84.606C92.3738 7.86735 98.6945 14.0629 98.6945 21.6773V74.2558Z" fill="black"/>
</svg>
