<svg width="128" height="128" viewBox="0 0 128 128" fill="none" xmlns="http://www.w3.org/2000/svg">
<path d="M14.3087 39.8008C3.53527 65.8817 -0.388927 104.68 14.3087 102.637C29.0063 100.594 45.911 67.0658 67.0715 75.3044C88.232 83.5429 96.808 46.0672 118.017 38.9254C139.226 31.7836 97.8874 22.0278 69.9424 22.0001C44.5703 21.9749 19.4355 27.3897 14.3087 39.8008Z" stroke="black" stroke-width="4.5"/>
<ellipse cx="58.5108" cy="83.1475" rx="17.1213" ry="9.78361" fill="black"/>
<path d="M75.3085 36C84.62 48.4444 79.9643 53.6296 69.101 64" stroke="black" stroke-width="3" stroke-linecap="round"/>
<path d="M73.8554 77.0505C72.0253 91.3345 76.5882 95.5803 86.6823 103.762" stroke="black" stroke-width="5" stroke-linecap="round"/>
<path d="M36.3752 37.3576C36.7884 36.2667 38.3316 36.2667 38.7448 37.3576V37.3576C39.0035 38.0404 39.7843 38.3639 40.4501 38.0639V38.0639C41.5136 37.5847 42.6048 38.6759 42.1256 39.7395V39.7395C41.8256 40.4052 42.1491 41.1861 42.8319 41.4447V41.4447C43.9228 41.8579 43.9228 43.4011 42.8319 43.8143V43.8143C42.1491 44.0729 41.8256 44.8538 42.1256 45.5195V45.5195C42.6048 46.5831 41.5136 47.6743 40.4501 47.1951V47.1951C39.7843 46.8951 39.0035 47.2185 38.7448 47.9014V47.9014C38.3316 48.9923 36.7884 48.9923 36.3752 47.9014V47.9014C36.1166 47.2185 35.3357 46.8951 34.67 47.1951V47.1951C33.6064 47.6743 32.5152 46.5831 32.9944 45.5195V45.5195C33.2944 44.8538 32.971 44.0729 32.2881 43.8143V43.8143C31.1972 43.4011 31.1972 41.8579 32.2881 41.4447V41.4447C32.971 41.1861 33.2944 40.4052 32.9944 39.7395V39.7395C32.5152 38.6759 33.6064 37.5847 34.67 38.0639V38.0639C35.3357 38.3639 36.1166 38.0404 36.3752 37.3576V37.3576Z" fill="black"/>
<path d="M20.3162 69.9281C20.7294 68.8372 22.2726 68.8372 22.6858 69.9281V69.9281C22.9445 70.6109 23.7253 70.9344 24.3911 70.6344V70.6344C25.4546 70.1552 26.5458 71.2464 26.0666 72.3099V72.3099C25.7666 72.9757 26.0901 73.7566 26.773 74.0152V74.0152C27.8639 74.4284 27.8639 75.9716 26.773 76.3848V76.3848C26.0901 76.6434 25.7666 77.4243 26.0666 78.09V78.09C26.5458 79.1536 25.4546 80.2448 24.3911 79.7656V79.7656C23.7253 79.4656 22.9445 79.789 22.6858 80.4719V80.4719C22.2726 81.5628 20.7294 81.5628 20.3162 80.4719V80.4719C20.0576 79.789 19.2767 79.4656 18.611 79.7656V79.7656C17.5474 80.2448 16.4562 79.1536 16.9354 78.09V78.09C17.2354 77.4243 16.912 76.6434 16.2291 76.3848V76.3848C15.1382 75.9716 15.1382 74.4284 16.2291 74.0152V74.0152C16.912 73.7566 17.2354 72.9757 16.9354 72.3099V72.3099C16.4562 71.2464 17.5474 70.1552 18.611 70.6344V70.6344C19.2767 70.9344 20.0576 70.6109 20.3162 69.9281V69.9281Z" fill="black"/>
<path d="M53.4965 49.5871C53.9097 48.4962 55.4529 48.4962 55.8661 49.5871V49.5871C56.1247 50.2699 56.9056 50.5934 57.5714 50.2934V50.2934C58.6349 49.8142 59.7261 50.9054 59.2469 51.9689V51.9689C58.9469 52.6347 59.2704 53.4155 59.9532 53.6742V53.6742C61.0441 54.0874 61.0441 55.6306 59.9532 56.0438V56.0438C59.2704 56.3024 58.9469 57.0833 59.2469 57.749V57.749C59.7261 58.8126 58.6349 59.9038 57.5714 59.4246V59.4246C56.9056 59.1246 56.1247 59.448 55.8661 60.1309V60.1309C55.4529 61.2218 53.9097 61.2218 53.4965 60.1309V60.1309C53.2379 59.448 52.457 59.1246 51.7913 59.4246V59.4246C50.7277 59.9038 49.6365 58.8126 50.1157 57.749V57.749C50.4157 57.0833 50.0923 56.3024 49.4094 56.0438V56.0438C48.3185 55.6306 48.3185 54.0874 49.4094 53.6742V53.6742C50.0923 53.4155 50.4157 52.6347 50.1157 51.9689V51.9689C49.6365 50.9054 50.7277 49.8142 51.7913 50.2934V50.2934C52.457 50.5934 53.2379 50.2699 53.4965 49.5871V49.5871Z" fill="black"/>
<path d="M11.764 32.5587C11.8378 32.3639 12.1134 32.3639 12.1872 32.5587V32.5587C12.2334 32.6806 12.3728 32.7384 12.4917 32.6848V32.6848C12.6816 32.5993 12.8765 32.7941 12.7909 32.984V32.984C12.7373 33.1029 12.7951 33.2424 12.917 33.2886V33.2886C13.1118 33.3623 13.1118 33.6379 12.917 33.7117V33.7117C12.7951 33.7579 12.7373 33.8973 12.7909 34.0162V34.0162C12.8765 34.2061 12.6816 34.401 12.4917 34.3154V34.3154C12.3728 34.2618 12.2334 34.3196 12.1872 34.4415V34.4415C12.1134 34.6363 11.8378 34.6363 11.764 34.4415V34.4415C11.7178 34.3196 11.5784 34.2618 11.4595 34.3154V34.3154C11.2696 34.401 11.0747 34.2061 11.1603 34.0162V34.0162C11.2139 33.8973 11.1561 33.7579 11.0342 33.7117V33.7117C10.8394 33.6379 10.8394 33.3623 11.0342 33.2886V33.2886C11.1561 33.2424 11.2139 33.1029 11.1603 32.984V32.984C11.0747 32.7941 11.2696 32.5993 11.4595 32.6848V32.6848C11.5784 32.7384 11.7178 32.6806 11.764 32.5587V32.5587Z" fill="black"/>
<path d="M37.6594 62.6984C37.866 62.153 38.6376 62.153 38.8442 62.6984V62.6984C38.9735 63.0399 39.364 63.2016 39.6968 63.0516V63.0516C40.2286 62.812 40.7742 63.3576 40.5346 63.8894V63.8894C40.3846 64.2223 40.5463 64.6127 40.8878 64.742V64.742C41.4332 64.9486 41.4332 65.7202 40.8878 65.9268V65.9268C40.5463 66.0561 40.3846 66.4465 40.5346 66.7794V66.7794C40.7742 67.3112 40.2286 67.8568 39.6968 67.6172V67.6172C39.364 67.4672 38.9735 67.6289 38.8442 67.9704V67.9704C38.6376 68.5158 37.866 68.5158 37.6594 67.9704V67.9704C37.5301 67.6289 37.1397 67.4672 36.8068 67.6172V67.6172C36.275 67.8568 35.7294 67.3112 35.969 66.7794V66.7794C36.119 66.4465 35.9573 66.0561 35.6159 65.9268V65.9268C35.0704 65.7202 35.0704 64.9486 35.6159 64.742V64.742C35.9573 64.6127 36.119 64.2223 35.969 63.8894V63.8894C35.7294 63.3576 36.275 62.812 36.8068 63.0516V63.0516C37.1397 63.2016 37.5301 63.0399 37.6594 62.6984V62.6984Z" fill="black"/>
<path d="M59.6725 35.7935C59.8791 35.2481 60.6507 35.2481 60.8573 35.7935V35.7935C60.9866 36.135 61.377 36.2967 61.7099 36.1467V36.1467C62.2417 35.9071 62.7873 36.4527 62.5477 36.9845V36.9845C62.3977 37.3173 62.5594 37.7078 62.9009 37.8371V37.8371C63.4463 38.0437 63.4463 38.8153 62.9009 39.0219V39.0219C62.5594 39.1512 62.3977 39.5416 62.5477 39.8745V39.8745C62.7873 40.4063 62.2417 40.9519 61.7099 40.7123V40.7123C61.377 40.5623 60.9866 40.724 60.8573 41.0655V41.0655C60.6507 41.6109 59.8791 41.6109 59.6725 41.0655V41.0655C59.5432 40.724 59.1528 40.5623 58.8199 40.7123V40.7123C58.2881 40.9519 57.7425 40.4063 57.9821 39.8745V39.8745C58.1321 39.5416 57.9704 39.1512 57.6289 39.0219V39.0219C57.0835 38.8153 57.0835 38.0437 57.6289 37.8371V37.8371C57.9704 37.7078 58.1321 37.3173 57.9821 36.9845V36.9845C57.7425 36.4527 58.2881 35.9071 58.8199 36.1467V36.1467C59.1528 36.2967 59.5432 36.135 59.6725 35.7935V35.7935Z" fill="black"/>
</svg>
