<svg width="128" height="128" viewBox="0 0 128 128" fill="none" xmlns="http://www.w3.org/2000/svg">
<g clip-path="url(#clip0_1_195)">
<path fill-rule="evenodd" clip-rule="evenodd" d="M90.2072 16.2609L37.75 16.3064L37.7931 71.9565L90.25 71.9111L90.2072 16.2609ZM64.0112 58.5368C70.5392 58.5309 75.6643 53.3443 75.6593 46.7488C75.6547 40.6242 63.9859 25.5588 63.9859 25.5588C63.9859 25.5588 52.3398 40.1735 52.345 46.7689C52.35 53.3644 57.4832 58.5424 64.0112 58.5368Z" fill="black"/>
<path fill-rule="evenodd" clip-rule="evenodd" d="M40.375 79.9195C40.3735 78.4571 41.7436 77.2707 43.4347 77.2696L55.6847 77.2609C57.3762 77.2598 58.7485 78.4442 58.75 79.9066C58.7512 81.3689 57.3814 82.5554 55.69 82.5565L43.44 82.5652C41.7485 82.5663 40.3762 81.3819 40.375 79.9195Z" fill="black"/>
<path fill-rule="evenodd" clip-rule="evenodd" d="M69.25 79.9195C69.2485 78.4571 70.6186 77.2709 72.3097 77.2696L84.5597 77.2609C86.2512 77.2598 87.6235 78.4442 87.625 79.9066C87.6262 81.3689 86.2564 82.5554 84.565 82.5565L72.315 82.5652C70.6235 82.5665 69.2512 81.3819 69.25 79.9195Z" fill="black"/>
<path fill-rule="evenodd" clip-rule="evenodd" d="M30.9908 9.21178L96.9427 9.15631C98.5984 9.15492 99.9417 10.5319 99.9432 12.2319L100.004 89.1856C100.006 90.8857 98.6646 92.265 97.009 92.2662L79.0224 92.2813L79.0272 98.4376L97.014 98.4225C101.981 98.4185 106.004 94.2806 106 89.1807L105.939 12.2269C105.935 7.12685 101.905 2.99585 96.9379 3L30.986 3.05547C26.0189 3.05966 21.9958 7.19743 22 12.2975L22.0612 89.2512C22.0654 94.3514 26.095 98.4823 31.0621 98.4783L49.049 98.4629L49.0442 92.3066L31.0573 92.322C29.4016 92.3232 28.0583 90.9463 28.0568 89.2463L27.9956 12.2925C27.9941 10.5924 29.3354 9.21316 30.9908 9.21178Z" fill="black"/>
<path fill-rule="evenodd" clip-rule="evenodd" d="M76.2276 91.3383L51.7494 91.3582L51.7721 118.879L76.2503 118.859L76.2276 91.3383ZM45.625 85.2477L45.6577 125L82.375 124.97L82.3423 85.2174L45.625 85.2477Z" fill="black"/>
<path d="M71.875 107.755C71.878 111.417 68.9422 114.388 65.3178 114.391C61.6936 114.394 58.753 111.428 58.75 107.766C58.7471 104.104 61.6828 101.133 65.3073 101.13C68.9314 101.127 71.872 104.093 71.875 107.755Z" fill="black"/>
</g>
<defs>
<clipPath id="clip0_1_195">
<rect width="84" height="122" fill="white" transform="translate(22 3)"/>
</clipPath>
</defs>
</svg>
