<svg width="128" height="128" viewBox="0 0 128 128" fill="none" xmlns="http://www.w3.org/2000/svg">
<path d="M38.1074 59.0431C40.1785 59.0431 41.8574 57.3642 41.8574 55.2931C41.8574 53.222 40.1785 51.5431 38.1074 51.5431C36.0364 51.5431 34.3574 53.222 34.3574 55.2931C34.3574 57.3642 36.0364 59.0431 38.1074 59.0431Z" fill="black"/>
<path d="M53.6429 62.2571C55.4181 62.2571 56.8572 60.818 56.8572 59.0428C56.8572 57.2676 55.4181 55.8285 53.6429 55.8285C51.8677 55.8285 50.4286 57.2676 50.4286 59.0428C50.4286 60.818 51.8677 62.2571 53.6429 62.2571Z" fill="black"/>
<path d="M37.5716 67.8036C39.3468 67.8036 40.7859 66.3646 40.7859 64.5894C40.7859 62.8141 39.3468 61.3751 37.5716 61.3751C35.7964 61.3751 34.3573 62.8141 34.3573 64.5894C34.3573 66.3646 35.7964 67.8036 37.5716 67.8036Z" fill="black"/>
<path d="M91.1429 60.1142C92.3264 60.1142 93.2858 59.1548 93.2858 57.9713C93.2858 56.7879 92.3264 55.8285 91.1429 55.8285C89.9595 55.8285 89.0001 56.7879 89.0001 57.9713C89.0001 59.1548 89.9595 60.1142 91.1429 60.1142Z" fill="black"/>
<path d="M22.5715 74.0426C23.755 74.0426 24.7144 73.0832 24.7144 71.8997C24.7144 70.7162 23.755 69.7568 22.5715 69.7568C21.3881 69.7568 20.4287 70.7162 20.4287 71.8997C20.4287 73.0832 21.3881 74.0426 22.5715 74.0426Z" fill="black"/>
<path d="M99.0287 67.3147C100.425 67.3147 101.558 66.1825 101.558 64.7858C101.558 63.3892 100.425 62.257 99.0287 62.257C97.6321 62.257 96.4998 63.3892 96.4998 64.7858C96.4998 66.1825 97.6321 67.3147 99.0287 67.3147Z" fill="black"/>
<path d="M100.786 57.9719C101.969 57.9719 102.928 57.0125 102.928 55.829C102.928 54.6455 101.969 53.6862 100.786 53.6862C99.6021 53.6862 98.6427 54.6455 98.6427 55.829C98.6427 57.0125 99.6021 57.9719 100.786 57.9719Z" fill="black"/>
<path d="M114.714 62.2573C115.898 62.2573 116.857 61.2979 116.857 60.1144C116.857 58.9309 115.898 57.9716 114.714 57.9716C113.531 57.9716 112.571 58.9309 112.571 60.1144C112.571 61.2979 113.531 62.2573 114.714 62.2573Z" fill="black"/>
<path d="M109.342 71.4904C110.273 71.4904 111.027 70.7356 111.027 69.8045C111.027 68.8734 110.273 68.1186 109.342 68.1186C108.41 68.1186 107.656 68.8734 107.656 69.8045C107.656 70.7356 108.41 71.4904 109.342 71.4904Z" fill="black"/>
<path d="M117.111 44.9614C114.72 47.616 110.616 47.833 107.957 45.4461C107.367 44.9158 106.897 44.3027 106.549 43.6395C105.279 43.6787 103.988 43.2485 102.968 42.3325C102.907 42.2772 102.847 42.2207 102.788 42.1629C102.398 42.2462 102 42.2841 101.602 42.2759C101.253 42.5751 100.862 42.8073 100.447 42.9697C100.37 43.0741 100.288 43.1753 100.2 43.2728C98.6942 44.9443 96.1148 45.0769 94.445 43.5776C94.3964 43.5339 94.3487 43.4893 94.3028 43.4437C94.2029 43.5837 94.0943 43.7195 93.9764 43.8504C92.2832 45.7302 89.3783 45.883 87.4955 44.1926C87.3905 44.0984 87.2912 44.0005 87.197 43.8993C86.9504 43.9712 86.7002 44.029 86.4479 44.0724C86.2883 44.3529 86.0963 44.6213 85.871 44.8715C84.3092 46.6053 81.716 46.8703 79.8461 45.5743C79.7123 45.7919 79.5572 46.0002 79.3808 46.1962C77.8121 47.9376 75.1277 48.0794 73.3841 46.5138C72.2207 45.4691 71.768 43.9271 72.0611 42.4985C71.3681 42.3179 70.6961 42.0249 70.0748 41.618C68.6792 43.1217 66.4364 43.3916 64.7408 42.3547C64.6274 42.5243 64.5008 42.6879 64.3601 42.8439C63.0299 44.3208 60.8987 44.6457 59.2187 43.7569C57.6137 44.4068 56.0135 44.5944 54.4934 44.1784C53.144 43.8092 52.0037 43.0046 51.0641 41.8865C50.7371 41.9916 50.3981 42.051 50.0576 42.0646C49.9979 42.142 49.9349 42.2176 49.8686 42.2912C48.4805 43.8324 46.0991 43.963 44.5517 42.5739C44.2529 42.3054 44.0078 41.9998 43.8161 41.6716C43.4198 41.601 43.0289 41.4834 42.6536 41.3185C30.3044 43.4222 18.3975 46.7287 7.03865 51.099C6.53411 51.2931 5.96416 51.2007 5.54677 50.8571C5.12938 50.5136 4.92914 49.972 5.02264 49.4396L6.55109 40.7356C6.64931 40.1761 7.05512 39.7202 7.59938 39.5577C34.6724 31.4755 49.0412 29.0669 63.9029 28.2823C82.8272 27.2784 101.287 28.9736 118.844 33.0207C119.424 33.1025 119.905 33.5152 120.073 34.0798L122.581 42.5437C122.734 43.0614 122.598 43.6216 122.223 44.0105C121.849 44.3994 121.294 44.557 120.771 44.4232C119.843 44.1858 118.913 43.9555 117.981 43.7324C117.746 44.1649 117.456 44.5783 117.111 44.9614ZM117.111 44.9614L115.996 43.9575M103.788 41.4199L103.97 41.2164M16.196 100.006C16.5595 100.577 17.2597 100.833 17.9056 100.632C47.1794 91.543 56.7863 90.0667 66.6392 89.5441C83.2679 88.6639 99.3791 90.5968 114.484 94.9123C115.181 95.1115 115.92 94.7839 116.241 94.1341C116.38 93.8524 116.595 93.4222 116.852 92.908C117.799 91.0153 119.313 87.9871 119.682 87.0697C119.84 86.6773 119.825 86.2366 119.641 85.8559C119.456 85.4752 119.12 85.1902 118.714 85.0708C114.735 83.8996 110.694 82.8811 106.6 82.0249C106.383 81.7141 106.127 81.4231 105.833 81.1594C105.066 80.4706 104.146 80.0566 103.198 79.9108C103.014 79.6789 102.809 79.4587 102.582 79.2547C101.742 78.5008 100.727 78.0625 99.6839 77.9338C98.1419 76.6636 96.0734 76.4014 94.3184 77.1061C94.0469 76.213 93.5357 75.3787 92.7881 74.7076C92.4323 74.3881 92.0438 74.125 91.6331 73.9183C91.3937 73.5616 91.1078 73.2307 90.7769 72.9337C89.5358 71.8192 87.911 71.3971 86.3801 71.6422C86.1971 70.6534 85.6979 69.7153 84.8918 68.9917C83.5826 67.816 81.7931 67.5043 80.231 68.0242C80.0906 67.8574 79.9373 67.6987 79.7711 67.5496C77.8313 65.8078 74.8391 65.9636 73.0928 67.9021C72.9869 68.02 72.8876 68.1421 72.7952 68.2675C71.4425 68.2162 70.0721 68.7397 69.0926 69.8269C68.7272 70.2328 68.4521 70.6771 68.2637 71.1622C66.3335 70.6078 64.1687 71.1517 62.7353 72.7432C62.3948 73.1212 62.1173 73.5346 61.9022 73.9705C59.8148 73.0384 57.278 73.5031 55.6664 75.292C55.568 75.4015 55.4744 75.514 55.3862 75.6292C53.7755 75.5086 52.1201 76.1044 50.9513 77.4019C50.4494 77.959 50.0852 78.5926 49.8557 79.2595C49.3634 79.2742 48.8732 79.3642 48.404 79.5292C48.2177 79.2784 48.0035 79.0417 47.7611 78.8239C45.7967 77.0602 42.7679 77.2195 41.0012 79.1809C40.5065 79.7299 40.163 80.3623 39.9671 81.0271C39.8705 81.1189 39.7775 81.2146 39.6881 81.3136C39.2858 81.7603 38.9792 82.2577 38.7635 82.7797C38.6585 82.8043 38.5538 82.8289 38.4494 82.8535C29.537 84.9382 20.9378 87.7783 12.7118 91.2961C12.3068 91.4692 11.9984 91.8115 11.8684 92.2324C11.7384 92.6533 11.8 93.1099 12.0367 93.4813L16.196 100.006Z" stroke="black" stroke-width="4" stroke-linecap="round" stroke-linejoin="round"/>
</svg>
