<svg width="128" height="128" viewBox="0 0 128 128" fill="none" xmlns="http://www.w3.org/2000/svg">
<g clip-path="url(#clip0_1_193)">
<path d="M65.617 28.8364C73.02 28.8364 79.0213 22.8288 79.0213 15.4182C79.0213 8.00752 73.02 2 65.617 2C58.2141 2 52.2128 8.00752 52.2128 15.4182C52.2128 22.8288 58.2141 28.8364 65.617 28.8364Z" fill="black"/>
<path fill-rule="evenodd" clip-rule="evenodd" d="M110.438 33.3091H18.5625C14.9381 33.3091 12 36.2399 12 39.8553C12 43.4707 14.9381 46.4015 18.5625 46.4015H45.4827C47.0082 46.6742 49.0913 47.448 50.1902 50.2888C51.462 53.5772 50.8382 59.4551 50.0428 64.3978L49.0106 70.2334L48.9947 70.3182L48.9936 70.3237L40.688 117.311C40.0582 120.871 42.4418 124.267 46.011 124.895C49.5807 125.522 52.938 123.145 53.5671 119.584L59.3047 86.8646V86.9101C59.3047 86.9101 61.0137 78.0414 64.3502 78.0414H64.6498C68.0547 78.0414 69.6953 86.9101 69.6953 86.9101V86.8875L75.4329 119.595C76.062 123.156 79.4423 125.527 83.012 124.899C86.5812 124.271 88.9532 120.873 88.3235 117.313L80.0121 70.3232L80.008 70.3158C80.0028 70.2874 79.996 70.2566 79.9908 70.228L78.958 64.3871C78.1626 59.4445 77.5386 53.5775 78.8101 50.2888C79.9093 47.4483 81.9918 46.6742 83.5173 46.4015H110.438C114.062 46.4015 117 43.4707 117 39.8553C117 36.2399 114.062 33.3091 110.438 33.3091Z" fill="black"/>
</g>
<defs>
<clipPath id="clip0_1_193">
<rect width="105" height="123" fill="white" transform="translate(12 2)"/>
</clipPath>
</defs>
</svg>
