<svg width="128" height="128" viewBox="0 0 128 128" fill="none" xmlns="http://www.w3.org/2000/svg">
<path fill-rule="evenodd" clip-rule="evenodd" d="M68.4885 48.6438V87.424V91.0418V101.078C68.4885 107.112 63.676 112 57.7403 112H52.3662H36.2442C30.3086 112 25.4961 107.308 25.4961 101.524V91.0288C25.4961 90.9765 25.4934 90.9371 25.4934 90.8848C13.4045 89.5826 4 79.6226 4 67.5165V33.4047L17.4351 33.4073V38.6442H9.37403V67.5165C9.37403 77.6181 17.7952 85.8103 28.1832 85.8103C38.5712 85.8103 46.9923 77.6181 46.9923 67.5165V38.6442H38.9312V33.4073L52.3662 33.4047V67.5165C52.3662 79.6226 42.9644 89.5802 30.8782 90.8848C30.8782 90.9395 30.8702 91 30.8702 91.0552V101.521C30.8702 104.413 33.2777 106.758 36.2442 106.758H52.3662H57.7403C60.0914 106.758 63.1144 104.348 63.1144 101.076V91.0394V48.6438C59.992 47.5645 57.7403 44.6828 57.7403 41.2666C57.7403 36.9283 61.349 33.4073 65.8014 33.4073C70.2539 33.4073 73.8626 36.9283 73.8626 41.2666C73.8626 44.6853 71.6109 47.5645 68.4885 48.6438Z" fill="black"/>
<path d="M123.468 49.0711L105.532 17.7733C104.188 15.4466 100.675 15.3715 99.3299 17.7733L81.3942 49.0711C80.0493 51.3978 81.7682 54.4 84.533 54.4H120.329C123.095 54.4 124.814 51.4729 123.468 49.0711ZM102.469 42.5414C104.337 42.5414 105.906 44.1175 105.906 45.9939C105.906 47.9453 104.337 49.4464 102.469 49.4464C100.526 49.4464 99.0309 47.9453 99.0309 45.9939C99.0309 44.1175 100.526 42.5414 102.469 42.5414ZM99.1806 30.1573C99.1057 29.632 99.5541 29.1816 100.077 29.1816H104.785C105.308 29.1816 105.757 29.632 105.682 30.1573L105.159 40.3648C105.084 40.8902 104.711 41.1904 104.262 41.1904H100.6C100.152 41.1904 99.7782 40.8902 99.7033 40.3648L99.1806 30.1573Z" fill="black"/>
</svg>
