<svg width="128" height="128" viewBox="0 0 128 128" fill="none" xmlns="http://www.w3.org/2000/svg">
<path fill-rule="evenodd" clip-rule="evenodd" d="M39.267 6.29719C20.2525 6.29719 8 23.4428 8 44.3011C8 71.6952 31.1389 102.323 60.2224 121.852C62.683 123.486 65.8796 123.364 68.1893 121.561C70.2219 119.978 73.3563 117.36 77.1374 113.925C83.1616 108.452 89.1215 102.425 94.6519 95.9798C110.497 77.5146 120.021 59.078 120.021 41.5084C120.021 20.3639 106.443 6 89.3399 6V15.0002C101.386 15.0002 111.06 25.2331 111.06 41.5084C111.06 56.4285 102.436 73.1225 87.8633 90.1043C82.5938 96.2452 76.8904 102.013 71.1253 107.251C68.2233 109.887 65.7374 112.005 63.905 113.488C37.6753 95.4381 16.9617 67.6486 16.9617 44.3011C16.9617 27.8934 25.963 15.2973 39.267 15.2973C47.8258 15.2973 55.922 20.9496 59.8319 31.0937L64.0147 41.9457L68.1904 31.091C72.1616 20.768 80.4924 15.0002 89.3399 15.0002V6C79.4417 6 70.1104 11.0083 64.0047 19.8779C58.0044 11.1996 48.9077 6.29719 39.267 6.29719Z" fill="black"/>
</svg>
