<svg width="128" height="128" viewBox="0 0 128 128" fill="none" xmlns="http://www.w3.org/2000/svg">
<path fill-rule="evenodd" clip-rule="evenodd" d="M34.8944 103C34.8909 103 34.8891 103 34.8856 103C34.2042 102.995 33.6391 102.476 33.5792 101.802L28.2708 41.9858L25.4291 82.4692C25.3815 83.1454 24.8252 83.6744 24.1438 83.6901C23.5223 83.7024 22.8814 83.2049 22.8004 82.5288L19.64 55.6747L16.8071 67.0147C16.661 67.6015 16.1328 68.0114 15.5253 68.0114H5.3205C4.59158 68.0114 4 67.4228 4 66.6976C4 65.9725 4.59158 65.3839 5.3205 65.3839H14.4918L18.8248 48.0376C18.978 47.421 19.5801 47.0059 20.1893 47.0427C20.8267 47.083 21.3426 47.5699 21.4183 48.2005L23.7776 68.2566L26.7989 25.2227C26.8464 24.5396 27.4151 24.0071 28.1035 24.0001C28.107 24.0001 28.1123 24.0001 28.1159 24.0001C28.799 24.0001 29.3712 24.5186 29.4311 25.1982L34.9913 87.866L38.1992 56.801C38.2661 56.1546 38.7978 55.6537 39.451 55.6239C40.1183 55.5994 40.68 56.0425 40.8085 56.6801L43.5763 70.5652L45.0411 66.2755C45.2225 65.743 45.726 65.3839 46.2912 65.3839H81.6348L85.9696 48.0359C86.1228 47.421 86.6791 47.0217 87.3341 47.0427C87.9697 47.083 88.4873 47.5699 88.5613 48.2005L90.9224 68.2548L93.9419 25.2227C93.9894 24.5396 94.5581 24.0071 95.2466 24.0001C95.986 23.9913 96.5142 24.5151 96.5741 25.1982L102.138 87.8677L105.344 56.801C105.411 56.1546 105.943 55.6537 106.596 55.6239C107.261 55.5959 107.827 56.0425 107.953 56.6801L110.721 70.567L112.188 66.2755C112.371 65.7413 112.873 65.3839 113.438 65.3839H122.68C123.408 65.3839 124 65.9725 124 66.6976C124 67.4228 123.408 68.0114 122.68 68.0114H114.383L111.635 76.0565C111.445 76.6188 110.897 76.9797 110.297 76.9446C109.702 76.9061 109.205 76.4717 109.089 75.8884L107.071 65.771L103.351 101.818C103.282 102.489 102.714 102.998 102.037 102.998C102.034 102.998 102.03 102.998 102.029 102.998C101.347 102.993 100.782 102.475 100.722 101.8L95.412 41.9858L92.5721 82.4657C92.5263 83.1436 91.9664 83.6709 91.2868 83.6884C90.6424 83.7006 90.0244 83.2014 89.9434 82.527L86.7848 55.6729L83.9501 67.0164C83.804 67.6032 83.2758 68.0131 82.6683 68.0131H47.2402L44.4936 76.0583C44.3017 76.6206 43.7365 76.9709 43.1572 76.9464C42.5604 76.9078 42.0656 76.4734 41.9476 75.8901L39.9299 65.7728L36.2061 101.821C36.1375 102.49 35.5705 103 34.8944 103Z" fill="black" stroke="black"/>
</svg>
