<svg width="128" height="128" viewBox="0 0 128 128" fill="none" xmlns="http://www.w3.org/2000/svg">
<path d="M4.0001 43.5C4.0001 43.5 8.77434 17.0146 36 13.5" stroke="black" stroke-width="6" stroke-linecap="round"/>
<path d="M10.0001 53.5C10.0001 53.5 14.7743 27.0146 42 23.5" stroke="black" stroke-width="6" stroke-linecap="round"/>
<path d="M116 51.5C116 51.5 111.226 25.0146 84 21.5" stroke="black" stroke-width="6" stroke-linecap="round"/>
<path d="M124 43.5C124 43.5 119.226 17.0146 92 13.5" stroke="black" stroke-width="6" stroke-linecap="round"/>
<path fill-rule="evenodd" clip-rule="evenodd" d="M46.6546 33.6981C34.0939 33.6981 26 45.1285 26 59.0341C26 77.2968 41.2853 97.7152 60.4976 110.735C62.123 111.824 64.2346 111.743 65.7604 110.541C67.1031 109.485 69.1736 107.74 71.6714 105.45C75.6509 101.801 79.5879 97.7832 83.2413 93.4865C93.7083 81.1764 100 68.8854 100 57.1723C100 43.0759 91.0301 33.5 79.7322 33.5V39.5001C87.6898 39.5001 94.08 46.322 94.08 57.1723C94.08 67.119 88.383 78.2483 78.7568 89.5696C75.2758 93.6635 71.5083 97.5085 67.6999 101C65.7828 102.758 64.1407 104.17 62.9302 105.159C45.6032 93.1254 31.92 74.5991 31.92 59.0341C31.92 48.0956 37.8662 39.6982 46.6546 39.6982C52.3085 39.6982 57.6567 43.4664 60.2396 50.2291L63.0027 57.4638L65.7611 50.2273C68.3844 43.3453 73.8877 39.5001 79.7322 39.5001V33.5C73.1936 33.5 67.0294 36.8389 62.9961 42.7519C59.0323 36.9664 53.0232 33.6981 46.6546 33.6981Z" fill="black"/>
</svg>
