<svg width="128" height="128" viewBox="0 0 128 128" fill="none" xmlns="http://www.w3.org/2000/svg">
<g clip-path="url(#clip0_1_194)">
<path d="M116.258 25.2903C114.841 25.2903 113.531 25.7006 112.387 26.3665V23.3548C112.387 19.0852 108.915 15.6129 104.645 15.6129C103.041 15.6129 101.548 16.1045 100.312 16.9426C99.2529 13.9252 96.4077 11.7419 93.0323 11.7419C89.6568 11.7419 86.8097 13.9252 85.7529 16.9426C84.5161 16.1045 83.0239 15.6129 81.4194 15.6129C77.8213 15.6129 74.8174 18.0903 73.9523 21.4194H61.3C60.3748 17.8445 58.6271 14.6065 56.2581 11.9142V11.7419H56.1013C51.8471 7.00387 45.6942 4 38.8387 4H13.6774C8.34129 4 4 8.34129 4 13.6774V40.7742C4 46.1103 8.34129 50.4516 13.6774 50.4516H38.8387C45.6942 50.4516 51.8471 47.4477 56.1013 42.7097H56.2581V42.5374C58.6271 39.8452 60.3748 36.6071 61.3 33.0323H73.6774V69.0052L71.7419 67.0697V57.2258C71.7419 52.4239 67.8342 48.5161 63.0323 48.5161C58.2303 48.5161 54.3226 52.4239 54.3226 57.2258V76.1065L64.4277 94.631C65.7594 97.0736 67.7761 99.0206 70.2632 100.263L73.6774 101.97V124H77.5484V99.5781L71.9935 96.8006C70.2187 95.9123 68.7768 94.5226 67.8265 92.7787L58.1936 75.1194V57.2258C58.1936 54.5568 60.3632 52.3871 63.0323 52.3871C65.7013 52.3871 67.871 54.5568 67.871 57.2258V68.6723L72.8761 73.6774H77.5484V33.0323H81.4194V21.4194H78.0865C78.7581 20.2677 79.9929 19.4839 81.4194 19.4839C83.5523 19.4839 85.2903 21.2219 85.2903 23.3548V56.2581H89.1613V23.3548V19.4839C89.1613 17.351 90.8974 15.6129 93.0323 15.6129C95.1652 15.6129 96.9032 17.351 96.9032 19.4839V23.3548V25.2903V56.2581H100.774V25.2903V23.3548C100.774 21.2219 102.51 19.4839 104.645 19.4839C106.778 19.4839 108.516 21.2219 108.516 23.3548V33.0323V34.9677V56.2581H112.387V34.9677V33.0323C112.387 30.8994 114.123 29.1613 116.258 29.1613C118.391 29.1613 120.129 30.8994 120.129 33.0323V91.0968C120.129 94.7858 118.079 98.1032 114.779 99.7523L112.387 100.948V124H116.258V103.341L116.512 103.215C121.132 100.906 124 96.2626 124 91.0968V33.0323C124 28.7626 120.528 25.2903 116.258 25.2903ZM38.8387 46.5806H13.6774C10.4761 46.5806 7.87097 43.9755 7.87097 40.7742V13.6774C7.87097 10.4761 10.4761 7.87097 13.6774 7.87097H38.8387C43.1761 7.87097 47.171 9.32258 50.4013 11.7419H48.5161C45.3148 11.7419 42.7097 14.3471 42.7097 17.5484V36.9032C42.7097 40.1045 45.3148 42.7097 48.5161 42.7097H50.4013C47.171 45.129 43.1761 46.5806 38.8387 46.5806ZM54.2858 38.8387H48.5161C47.4477 38.8387 46.5806 37.9716 46.5806 36.9032V17.5484C46.5806 16.48 47.4477 15.6129 48.5161 15.6129H54.2858C56.7265 18.8529 58.1936 22.8671 58.1936 27.2258C58.1936 31.5845 56.7265 35.5987 54.2858 38.8387ZM77.5484 29.1613H61.9658C62.02 28.5206 62.0645 27.8781 62.0645 27.2258C62.0645 26.5735 62.02 25.931 61.9658 25.2903H77.5484V29.1613Z" fill="black"/>
<path d="M82.6864 67.1578L79.7895 70.0007L84.8805 74.9968C89.1357 79.1766 91.4815 84.7276 91.4815 90.6365V98.7368H95.5789V90.6365C95.5789 83.654 92.807 77.0917 87.7774 72.1559L82.6864 67.1578Z" fill="black"/>
<path d="M10.3158 41.8947H38.7368V10.3158H10.3158V41.8947ZM14.3759 14.2632H34.6767V37.9474H14.3759V14.2632Z" fill="black"/>
<path d="M22.9474 32.421H19.7895V35.5789H22.9474V32.421Z" fill="black"/>
<path d="M32.4211 32.421H29.2632V35.5789H32.4211V32.421Z" fill="black"/>
</g>
<defs>
<clipPath id="clip0_1_194">
<rect width="120" height="120" fill="white" transform="translate(4 4)"/>
</clipPath>
</defs>
</svg>
