<svg width="128" height="128" viewBox="0 0 128 128" fill="none" xmlns="http://www.w3.org/2000/svg">
<path fill-rule="evenodd" clip-rule="evenodd" d="M124.905 53.2653C124.905 46.463 121.207 40.1543 115.147 36.4375C111.929 23.5076 99.517 14.2908 84.9803 14.2908C81.4827 14.2908 78.0682 14.824 74.7977 15.8801C70.742 12.1161 65.2821 10 59.4537 10C52.7206 10 46.3341 12.9528 42.2486 17.838C41.3427 17.7321 40.4317 17.6786 39.5232 17.6786C29.6547 17.6786 21.2124 23.7168 18.6012 32.3291C9.92669 35.1199 4.04762 42.6709 4.04762 51.3661C4.04762 53.9439 4.58751 56.5153 5.62186 58.9005C4.58881 61.287 4.04762 63.8584 4.04762 66.4337C4.04762 73.912 8.41475 80.6658 15.4865 84.1964C19.5461 87.9528 25.1098 90.0957 30.8539 90.0957C34.5228 90.0957 38.0411 89.2679 41.1974 87.6747C45.2933 92.0829 51.3411 94.7168 57.7003 94.7168C61.6651 94.7168 65.4457 93.7513 68.7862 91.9043C72.485 94.5676 76.9014 96.2832 81.5566 96.8444C89.4045 104.584 95.4276 114.583 95.4873 114.688L97.4665 118L107.405 110.997L101.873 95.412C104.989 93.9936 107.567 91.6735 109.2 88.7653C115.989 85.2245 120.312 78.4464 120.312 71.1697C120.312 69.5383 120.103 67.9286 119.69 66.3623C123.028 62.7322 124.905 58.0714 124.905 53.2653ZM105.06 82.9528L103.822 83.5089L103.274 84.7347C102.126 87.3023 99.639 89.1786 96.6268 89.7577L92.5828 90.5319L97.8571 105.39C94.9747 101.297 90.6582 95.7066 85.6383 90.9503L84.709 90.0714L83.4242 89.9783C80.3548 89.7551 77.4114 88.8482 74.8262 87.3916L85.1022 79.4095C87.7783 77.3291 91.3849 76.4235 92.5997 76.7436L97.3094 77.9745L99.0784 71.4235L94.3673 70.1939C90.2273 69.1097 84.2989 71.3967 80.826 74.0931L69.2859 83.0536L69.2586 83.0281L66.894 84.7564C64.2646 86.6824 61.2459 87.7015 57.8587 87.7015C53.0217 87.7015 48.5507 85.4885 45.9552 81.8967V71.736C45.9552 69.0166 47.2426 66.4197 48.0018 65.9694L51.855 63.6301L48.1173 57.6288L44.1655 59.9656C42.3161 61.0638 40.8859 63.0077 39.932 65.1862C39.13 64.4592 38.2643 63.8112 37.3598 63.2717L25.8002 56.3852L22.0975 62.384L33.4923 69.2704C36.2605 70.9197 38.1683 74.5051 38.1683 76.6072V81.1212C35.5727 82.3992 33.4339 83.0791 30.6903 83.0791C26.6126 83.0791 22.7685 81.5204 20.0068 78.8074L19.6109 78.3788L19.0736 78.1199C14.1939 75.8444 11.1726 71.3648 11.1726 66.4311C11.1726 64.3788 11.693 62.4095 12.7092 60.5752L13.641 58.8967L12.7118 57.2194C11.6969 55.389 11.1817 53.4197 11.1817 51.3648C11.1817 45.2666 15.7759 40.0102 22.3519 38.5829L24.688 38.0753L25.0981 35.7589C26.2336 29.3457 32.2983 24.6913 39.5206 24.6913C40.6977 24.6913 41.8813 24.8214 43.0377 25.0791L45.484 25.6225L46.8338 23.5447C49.4488 19.5166 54.2845 17.014 59.4524 17.014C62.8007 17.014 65.9492 18.0306 68.4981 19.8559L65.8441 22.2895L65.7986 22.2411L63.9389 23.9452C61.4354 25.8278 58.3687 26.8163 57.1994 26.6429L52.1392 25.8942L51.0789 32.8316L56.1352 33.5791C56.3039 33.6046 56.4843 33.602 56.6569 33.6161C55.8406 36.1225 55.5472 38.7946 55.96 41.1582L57.1241 47.824L64.1595 46.6352L62.9954 39.9707C62.5567 37.4592 63.8481 33.6212 65.7091 31.9184L68.6344 29.2347C69.0367 28.9222 69.4182 28.6059 69.7673 28.287L75.3687 23.1505C78.412 21.9311 81.6423 21.3049 84.975 21.3049C96.667 21.3049 106.549 28.8839 108.473 39.3265L108.785 41.0204L110.337 41.8138C114.914 44.1531 117.76 48.5408 117.76 53.2653C117.76 55.7398 116.993 58.0944 115.584 60.1429L114.476 59.0536H114.477L109.853 54.5089C107.842 52.5344 105.787 48.1646 105.449 45.1595L104.686 38.3316L97.835 39.0715L98.5981 45.8993C98.8162 47.8572 99.4911 50.074 100.414 52.2092C99.9557 52.1544 99.4988 52.0944 99.0589 52.074L83.5566 51.3508L83.2282 58.1186L98.7409 58.8406C101.915 58.9885 106.562 60.8482 108.491 62.7423L112.169 66.3584L112.303 66.6837C112.882 68.1186 113.176 69.6301 113.176 71.1697C113.174 76.1939 110.064 80.7092 105.06 82.9528Z" fill="black"/>
</svg>
