<svg width="128" height="128" viewBox="0 0 128 128" fill="none" xmlns="http://www.w3.org/2000/svg">
<circle cx="63.8964" cy="35.907" r="7.88372" fill="black"/>
<path fill-rule="evenodd" clip-rule="evenodd" d="M91.4894 46.4186H36.3034C34.1263 46.4186 32.3615 48.1825 32.3615 50.3585C32.3615 52.5345 34.1263 54.2985 36.3034 54.2985H52.4734C53.3897 54.4627 54.6409 54.9284 55.301 56.6382C56.0649 58.6173 55.6903 62.1551 55.2125 65.1299L54.5925 68.6422L54.583 68.6933L54.5823 68.6966L49.5934 96.977C49.2151 99.1198 50.6468 101.163 52.7907 101.541C54.9349 101.919 56.9515 100.488 57.3294 98.3448L60.7758 78.652V78.6795C60.7758 78.6795 61.8023 73.3416 63.8064 73.3416H63.9864C66.0316 73.3416 67.0171 78.6795 67.0171 78.6795V78.6658L70.4634 98.3513C70.8413 100.495 72.8717 101.922 75.0159 101.544C77.1598 101.166 78.5846 99.1206 78.2064 96.9779L73.214 68.6963C73.2137 68.6949 73.2119 68.693 73.2115 68.6918C73.2084 68.6748 73.2043 68.6562 73.2012 68.639L72.5808 65.1235C72.103 62.1487 71.7282 58.6175 72.492 56.6382C73.1522 54.9286 74.4031 54.4627 75.3194 54.2985H91.4894C93.6665 54.2985 95.4313 52.5345 95.4313 50.3585C95.4313 48.1825 93.6665 46.4186 91.4894 46.4186Z" fill="black"/>
<path fill-rule="evenodd" clip-rule="evenodd" d="M64.0297 13.7197C85.0064 13.7197 102.999 26.5 110.398 44.5591C110.404 44.5726 110.395 44.5905 110.379 44.595L104.277 46.4838C102.999 46.8781 102.635 48.4869 103.623 49.3764L117.625 62.02C118.611 62.9117 120.208 62.4188 120.5 61.1305L124.629 42.8809C124.921 41.5948 123.689 40.4813 122.411 40.8756L117.001 42.5493C116.987 42.5538 116.971 42.5448 116.967 42.5314C114.386 36.0247 110.552 30.011 105.587 24.777C94.1838 12.763 77.9154 6.27228 61.2256 7.06499C47.1053 7.7356 33.9279 13.4643 23.8621 23.3655C17.2495 29.8699 12.4683 37.694 9.77365 46.2373C9.09029 48.3995 10.7463 50.5952 13.0492 50.5952H13.0537C14.5548 50.5952 15.876 49.634 16.3247 48.2247C22.6754 28.2544 41.6612 13.7197 64.0297 13.7197" fill="#1D1D1B"/>
<path fill-rule="evenodd" clip-rule="evenodd" d="M65.3777 113.069C43.6323 113.069 25.0756 99.0036 18.1426 79.4027C18.1357 79.3865 18.1449 79.368 18.1632 79.3634L24.063 78.0719C25.3774 77.7854 25.8917 76.1682 24.9888 75.1609L12.2771 60.9985C11.3742 59.9912 9.73291 60.3516 9.32146 61.6454L3.54051 79.8532C3.12906 81.147 4.25827 82.4038 5.57264 82.1173L11.3262 80.8582C11.3399 80.8559 11.3536 80.8628 11.3604 80.8767C14.1286 89.1639 18.7712 96.758 25.0688 103.125C35.8352 114.007 50.1515 120 65.3777 120C80.6038 120 94.9202 114.007 105.687 103.125C112.866 95.8685 117.891 87.0176 120.444 77.3626C121.029 75.1493 119.393 72.9753 117.127 72.9753C115.568 72.9753 114.211 74.0334 113.806 75.5536C108.055 97.1369 88.5243 113.069 65.3777 113.069" fill="#1D1D1B"/>
</svg>
