<svg width="128" height="128" viewBox="0 0 128 128" fill="none" xmlns="http://www.w3.org/2000/svg">
<path fill-rule="evenodd" clip-rule="evenodd" d="M64 10C48.536 10 36 22.536 36 38C36 48.8 42.4 58 51.6 62.4C47.2 67.6 44 74.4 44 82C44 97.464 56.536 110 72 110C87.464 110 100 97.464 100 82C100 74.4 96.8 67.6 92.4 62.4C101.6 58 108 48.8 108 38C108 22.536 95.464 10 80 10C74.4 10 69.2 11.6 64.8 14.4C62.8 11.6 59.6 10 56 10C53.2 10 50.8 11.2 49.2 13.2C52.4 16 55.2 19.6 57.2 23.6C58.8 22.4 60.8 21.6 63.2 21.6C68 21.6 72 25.6 72 30.4C72 32.8 71.2 34.8 69.6 36.4C73.6 39.2 76.8 42.8 79.2 47.2C83.6 44 89.2 42 95.2 42C97.2 42 99.2 42.4 101.2 42.8C100 37.2 98 32 95.2 27.6C92.8 24 89.6 21.2 86 19.2C84.4 23.6 82 27.6 79.2 31.2C82 34 84 37.6 84.8 41.6C86.4 40.8 88.4 40.4 90.4 40.4C95.2 40.4 99.2 44.4 99.2 49.2C99.2 54 95.2 58 90.4 58C85.6 58 81.6 54 81.6 49.2C81.6 48 81.9 46.8 82.4 45.6C78.4 42 75.2 37.6 73.2 32.4C70.8 35.2 67.6 37.2 64 38C60.4 37.2 57.2 35.2 54.8 32.4C52.8 37.6 49.6 42 45.6 45.6C46.1 46.8 46.4 48 46.4 49.2C46.4 54 42.4 58 37.6 58C32.8 58 28.8 54 28.8 49.2C28.8 44.4 32.8 40.4 37.6 40.4C39.6 40.4 41.6 40.8 43.2 41.6C44 37.6 46 34 48.8 31.2C46 27.6 43.6 23.6 42 19.2C38.4 21.2 35.2 24 32.8 27.6C30 32 28 37.2 26.8 42.8C28.8 42.4 30.8 42 32.8 42C38.8 42 44.4 44 48.8 47.2C51.2 42.8 54.4 39.2 58.4 36.4C56.8 34.8 56 32.8 56 30.4C56 25.6 60 21.6 64.8 21.6C67.2 21.6 69.2 22.4 70.8 23.6C72.8 19.6 75.6 16 78.8 13.2C77.2 11.2 74.8 10 72 10C68.4 10 65.2 11.6 63.2 14.4C58.8 11.6 53.6 10 48 10C32.536 10 20 22.536 20 38C20 48.8 26.4 58 35.6 62.4C31.2 67.6 28 74.4 28 82C28 97.464 40.536 110 56 110C71.464 110 84 97.464 84 82C84 74.4 80.8 67.6 76.4 62.4C85.6 58 92 48.8 92 38C92 22.536 79.464 10 64 10Z" fill="black"/>
</svg>
