<svg width="128" height="128" viewBox="0 0 128 128" fill="none" xmlns="http://www.w3.org/2000/svg">
<path d="M16.2832 64.9955C19.2131 64.9955 21.5882 62.6203 21.5882 59.6904C21.5882 56.7605 19.2131 54.3853 16.2832 54.3853C13.3532 54.3853 10.9781 56.7605 10.9781 59.6904C10.9781 62.6203 13.3532 64.9955 16.2832 64.9955Z" fill="black"/>
<path d="M89.502 61.8423C91.2111 61.8423 92.5966 60.4568 92.5966 58.7477C92.5966 57.0386 91.2111 55.6531 89.502 55.6531C87.7929 55.6531 86.4073 57.0386 86.4073 58.7477C86.4073 60.4568 87.7929 61.8423 89.502 61.8423Z" fill="black"/>
<path d="M111.331 72.0687C113.04 72.0687 114.426 70.6832 114.426 68.9741C114.426 67.265 113.04 65.8795 111.331 65.8795C109.622 65.8795 108.237 67.265 108.237 68.9741C108.237 70.6832 109.622 72.0687 111.331 72.0687Z" fill="black"/>
<path d="M110.447 60.5705C112.157 60.5705 113.542 59.185 113.542 57.4759C113.542 55.7668 112.157 54.3813 110.447 54.3813C108.738 54.3813 107.353 55.7668 107.353 57.4759C107.353 59.185 108.738 60.5705 110.447 60.5705Z" fill="black"/>
<path d="M99.1696 68.4155C100.736 68.4155 102.006 67.1457 102.006 65.5794C102.006 64.0131 100.736 62.7434 99.1696 62.7434C97.6033 62.7434 96.3336 64.0131 96.3336 65.5794C96.3336 67.1457 97.6033 68.4155 99.1696 68.4155Z" fill="black"/>
<path d="M30.8715 70.3003C34.5339 70.3003 37.5028 67.3314 37.5028 63.669C37.5028 60.0066 34.5339 57.0377 30.8715 57.0377C27.2091 57.0377 24.2402 60.0066 24.2402 63.669C24.2402 67.3314 27.2091 70.3003 30.8715 70.3003Z" fill="black"/>
<path d="M121.867 41.381L121.793 42.2541C121.867 41.381 121.867 41.381 121.867 41.381ZM121.867 41.381L122.529 41.46V50.2318L121.613 49.9587L121.606 49.9564L121.572 49.9466C121.542 49.9379 121.496 49.9248 121.436 49.9078C121.314 49.8737 121.132 49.8238 120.894 49.7613C120.416 49.6365 119.713 49.462 118.815 49.2646C117.02 48.8698 114.446 48.3843 111.346 48.0239C105.14 47.3023 96.8479 47.0851 88.4585 49.0805C82.0434 50.6062 77.8174 51.7898 74.6532 52.6761C73.6386 52.9603 72.733 53.2139 71.8994 53.4384C68.4511 54.3672 66.2392 54.7956 62.7275 54.7956C59.2123 54.7956 55.5644 54.1006 51.6259 53.1566C50.1411 52.8006 48.6215 52.4112 47.0498 52.0084C44.4229 51.335 41.6505 50.6244 38.652 49.9711C32.296 48.5862 28.0038 48.6368 23.2919 49.0351C22.208 49.1267 21.099 49.2372 19.936 49.353C16.0303 49.742 11.5164 50.1916 5.30542 50.1916H4.62469L4.05828 41.472L4.7688 41.3816M121.867 41.381L121.448 41.3317C121.173 41.2996 120.767 41.2525 120.242 41.1926C119.193 41.0728 117.669 40.9017 115.769 40.6964C111.968 40.2858 106.662 39.7383 100.638 39.1909C88.5968 38.0964 73.6685 37 62.1737 37C50.6778 37 36.3221 38.0966 24.8525 39.1911C19.1151 39.7387 14.0951 40.2862 10.5092 40.6968C8.71621 40.9022 7.28162 41.0733 6.29506 41.1931C5.80176 41.253 5.42047 41.3002 5.16236 41.3323L4.7688 41.3816M4.7688 41.3816L4.84682 42.2541C4.7688 41.3816 4.7688 41.3816 4.7688 41.3816ZM5.98602 48.435L5.63545 43.0379C5.85651 43.0106 6.12705 42.9774 6.44406 42.9389C7.42811 42.8194 8.85985 42.6486 10.6498 42.4436C14.2297 42.0336 19.2419 41.487 24.9699 40.9404C36.431 39.8466 50.7387 38.7548 62.1737 38.7548C73.6094 38.7548 88.4911 39.8467 100.527 40.9406C106.542 41.4873 111.841 42.034 115.636 42.4441C117.534 42.6491 119.055 42.8199 120.102 42.9394C120.486 42.9833 120.807 43.0203 121.058 43.0495V48.0082C120.574 47.8835 119.908 47.7204 119.082 47.5388C117.252 47.1365 114.637 46.6433 111.489 46.2773C105.198 45.5459 96.7501 45.3191 88.1708 47.3596C81.7281 48.8919 77.4684 50.085 74.3036 50.9714C73.2945 51.254 72.3971 51.5054 71.5755 51.7267C68.1922 52.638 66.0947 53.0408 62.7275 53.0408C59.3635 53.0408 55.8324 52.375 51.9156 51.4361C50.4707 51.0898 48.9667 50.7045 47.4011 50.3033C44.7532 49.6249 41.9289 48.9013 38.9164 48.2449C32.4078 46.8267 27.9866 46.8791 23.1879 47.2847C22.0812 47.3782 20.9576 47.4901 19.7851 47.6068C16.032 47.9805 11.7794 48.4039 5.98602 48.435ZM5.14368 90.3952L4 91L4.62677 82.8465L5.21104 82.7564L5.21914 82.755L5.24574 82.7507L5.35334 82.7334C5.44888 82.718 5.59149 82.6943 5.77817 82.6621C6.15154 82.5979 6.70109 82.4999 7.40269 82.3649C8.80598 82.0954 10.8169 81.6785 13.2423 81.0915C18.0952 79.917 24.5969 78.063 31.2067 75.3441C33.7964 74.2786 36.017 72.8965 38.3026 71.4739C43.8315 68.0322 49.7403 64.3542 62.1737 64.3542C74.639 64.3542 79.7956 67.1687 86.8877 71.0397C89.8081 72.6338 93.057 74.4071 97.2795 76.2367C104.571 79.3962 110.72 81.0767 115.04 81.9669C117.199 82.4121 118.901 82.6594 120.06 82.7955C120.639 82.8636 121.083 82.9038 121.379 82.927C121.527 82.9383 121.639 82.9456 121.713 82.9499L121.795 82.9545L121.814 82.9556H121.818L122.529 82.9848V90.8547L121.538 90.4149L121.532 90.4125L121.506 90.4014C121.482 90.3911 121.442 90.375 121.389 90.3531C121.28 90.3099 121.113 90.2448 120.881 90.1611C120.417 89.9937 119.698 89.7515 118.689 89.4597C116.672 88.8756 113.499 88.0924 108.905 87.3075C99.7167 85.7377 84.8473 84.1628 62.1737 84.1628C39.4992 84.1628 25.2058 85.738 16.5952 87.3061C12.2903 88.0905 9.4086 88.8724 7.61189 89.4537C6.71367 89.7442 6.08715 89.9848 5.68995 90.1498C5.49136 90.2324 5.35019 90.2961 5.26111 90.338C5.21656 90.3588 5.18506 90.3744 5.16591 90.3839L5.1464 90.3936L5.14368 90.3952ZM119.036 87.7543C119.908 88.0068 120.576 88.2247 121.058 88.3932V84.6596C120.764 84.6342 120.382 84.5967 119.916 84.5419C118.724 84.402 116.986 84.149 114.789 83.6962C110.395 82.7904 104.161 81.0853 96.7773 77.8861C92.3607 75.9723 89.0374 74.1569 86.096 72.5501C79.1306 68.7447 74.306 66.109 62.1737 66.109C50.1124 66.109 44.6592 69.5139 39.2389 72.8979C36.8929 74.3626 34.5531 75.8236 31.6863 77.0029C24.9962 79.7548 18.4274 81.6272 13.5348 82.8114C11.0873 83.4038 9.05672 83.8245 7.63665 84.0975C6.92659 84.2338 6.36903 84.3334 5.98817 84.399L5.98459 84.3996L5.68463 88.3016C6.08153 88.1488 6.59113 87.9657 7.2268 87.76C9.08469 87.159 12.0216 86.3641 16.3731 85.5717C25.0752 83.9865 39.4453 82.4081 62.1737 82.4081C84.9027 82.4081 99.8432 83.9868 109.114 85.5703C113.749 86.3622 116.969 87.1557 119.036 87.7543ZM5.30542 49.3662C4.6002 49.6153 4.60011 49.615 4.60011 49.615L4.60278 49.626L4.61346 49.6711C4.62317 49.7127 4.63793 49.7771 4.65703 49.8642C4.69522 50.0385 4.75074 50.3036 4.81787 50.6578C4.95209 51.3663 5.13273 52.4316 5.31393 53.841C5.6763 56.6598 6.04095 60.8552 6.04095 66.3258C6.04095 71.7965 5.6763 75.992 5.31393 78.8106C5.13273 80.22 4.95209 81.2854 4.81787 81.9939C4.75074 82.3481 4.69522 82.6133 4.65703 82.7874C4.63793 82.8746 4.62317 82.9392 4.61346 82.9805L4.60278 83.0258L4.60011 83.0366C4.60011 83.0366 4.6002 83.0363 5.30542 83.2856C6.01067 83.5348 6.01078 83.5342 6.01078 83.5342L6.01255 83.5269L6.01653 83.5107L6.03043 83.4519C6.04226 83.4014 6.0591 83.3277 6.08024 83.2313C6.1225 83.0385 6.18191 82.7545 6.25269 82.3808C6.39426 81.6334 6.5814 80.5278 6.76795 79.0765C7.14109 76.1743 7.51196 71.8897 7.51196 66.3258C7.51196 60.7619 7.14109 56.4775 6.76795 53.575C6.5814 52.1239 6.39426 51.0182 6.25269 50.271C6.18191 49.8973 6.1225 49.6133 6.08024 49.4205C6.0591 49.324 6.04226 49.2504 6.03043 49.1998L6.01653 49.1411L6.01255 49.1247L6.01135 49.1198C6.01135 49.1198 6.01067 49.117 5.30542 49.3662ZM121.793 48.4062C121.078 48.6089 121.078 48.6087 121.078 48.6087L121.078 48.6121L121.081 48.6259L121.093 48.6855C121.103 48.7392 121.118 48.8208 121.138 48.9294C121.177 49.1466 121.233 49.4717 121.301 49.8973C121.436 50.7487 121.618 52.0021 121.8 53.5991C122.164 56.7938 122.529 61.3602 122.529 66.8318C122.529 72.3022 122.164 76.4243 121.802 79.1686C121.621 80.5407 121.441 81.5686 121.307 82.2488C121.24 82.5887 121.185 82.8417 121.147 83.0075C121.128 83.0901 121.114 83.1511 121.104 83.1903L121.094 83.2324L121.091 83.2418C121.091 83.2418 121.091 83.2416 121.793 83.5024C122.496 83.7632 122.496 83.7618 122.496 83.7618L122.498 83.7554L122.502 83.7392L122.516 83.6825C122.528 83.6336 122.545 83.5626 122.566 83.4697C122.609 83.2839 122.668 83.0104 122.739 82.6497C122.881 81.9283 123.069 80.8575 123.256 79.4413C123.629 76.609 124 72.3957 124 66.8318C124 61.2685 123.629 56.6222 123.258 53.3628C123.072 51.7328 122.886 50.4488 122.746 49.5696C122.676 49.1299 122.617 48.7914 122.576 48.5613C122.555 48.4462 122.539 48.3583 122.527 48.2984L122.514 48.2296L122.511 48.2112L122.51 48.206C122.51 48.206 122.509 48.2035 121.793 48.4062Z" stroke="black" stroke-width="2"/>
</svg>
