<svg width="128" height="128" viewBox="0 0 128 128" fill="none" xmlns="http://www.w3.org/2000/svg">
<path d="M120.835 67.1194L121.844 67.3263C122.126 65.7746 121.899 63.9094 120.547 61.9708C119.227 60.0767 116.859 58.1448 112.92 56.2741L112.921 56.2731L112.879 56.2557C111.946 55.8658 110.722 56.2086 110.267 57.5025L111.226 57.903L110.267 57.5025C109.903 58.5414 110.18 59.8855 111.311 60.3772C113.749 61.5513 115.545 62.7668 116.664 63.9165C117.817 65.1019 118.048 65.9929 117.941 66.5725L118.95 66.7836L117.942 66.5715C117.864 66.9895 117.562 67.5791 116.806 68.2659C116.059 68.9445 114.944 69.6476 113.41 70.3016C110.344 71.6085 105.754 72.6575 99.5112 72.9991L99.5112 72.999L99.4967 73C98.4709 73.0728 97.5588 73.9955 97.5715 75.2553C97.5429 75.8658 97.7763 76.385 98.0739 76.7369C98.3847 77.1034 98.8291 77.3719 99.3324 77.4159L99.3334 77.416L99.4324 76.2721L99.3334 77.416L99.3344 77.4161L99.3365 77.4163L99.3406 77.4166L99.3498 77.4173L99.3673 77.4184L99.4043 77.4194C99.4312 77.4198 99.4601 77.4191 99.4923 77.417C99.5547 77.4124 99.629 77.4016 99.7105 77.3791C99.7528 77.3676 99.7954 77.3531 99.8403 77.3353C105.993 77.0068 111.123 75.9924 114.873 74.3889C118.603 72.7939 121.283 70.4695 121.845 67.3225L120.835 67.1194Z" fill="black" stroke="black" stroke-width="0.2"/>
<path d="M33.5101 66.73L32.5016 66.9369C32.2191 65.3852 32.4464 63.52 33.798 61.5814C35.0657 59.763 37.2983 57.9099 40.9604 56.1094L41.4245 55.8837L41.4664 55.8663C42.3989 55.4764 43.6228 55.8192 44.0779 57.1131C44.4233 58.0973 44.1929 59.3555 43.2058 59.9032L43.0343 59.9878C40.5963 61.1619 38.8003 62.3774 37.6811 63.5271C36.5279 64.7125 36.2971 65.6035 36.4046 66.1831C36.4814 66.6001 36.7829 67.1896 37.5391 67.8765C38.2863 68.5551 39.4012 69.2582 40.9353 69.9122C43.8919 71.1724 48.2651 72.1928 54.1715 72.5704L54.8486 72.6106C55.8744 72.6834 56.7865 73.6061 56.7738 74.8659C56.8024 75.4764 56.569 75.9956 56.2713 76.3475C55.9994 76.6682 55.6252 76.9138 55.1987 76.9997L54.978 77.029L54.8989 77.0297V77.0297L54.8529 77.0276C54.7906 77.023 54.7163 77.0122 54.6348 76.9897C54.5925 76.9782 54.5499 76.9637 54.505 76.9459C48.3518 76.6174 43.222 75.603 39.4721 73.9994C35.7426 72.4045 33.0626 70.0801 32.5002 66.9331L33.5101 66.73Z" fill="black" stroke="black" stroke-width="0.2"/>
<path d="M99.3117 81.6552L99.3727 81.7105C99.6422 81.9353 99.9944 82.1977 100.546 82.246C100.756 82.2643 101.112 82.2737 101.465 82.127C101.657 82.0473 101.876 81.9093 102.056 81.6763C102.158 81.5437 102.232 81.3996 102.283 81.2507C102.781 80.4088 102.751 79.2463 102.009 78.5086L98.7356 75.2522L101.708 71.5374C102.453 70.688 102.374 69.3291 101.502 68.5685C100.684 67.7932 99.3622 67.8963 98.6314 68.8386L93.8476 74.9105L93.2152 75.7128L93.937 76.4166L99.3117 81.6552Z" fill="black" stroke="black" stroke-width="0.2"/>
<path d="M54.8771 81.2658L54.816 81.321C54.5466 81.5458 54.1943 81.8083 53.6427 81.8565L53.4304 81.8666C53.2294 81.8675 52.9756 81.8423 52.7235 81.7376C52.5316 81.6578 52.3123 81.5199 52.1325 81.2868C52.0305 81.1543 51.9563 81.0101 51.906 80.8613C51.4072 80.0194 51.4373 78.8569 52.1795 78.1192L55.4531 74.8628L52.4805 71.148C51.7355 70.2986 51.8143 68.9396 52.6863 68.1791C53.5049 67.4038 54.8265 67.5069 55.5573 68.4492L60.9735 75.3233L54.8771 81.2658Z" fill="black" stroke="black" stroke-width="0.2"/>
<path fill-rule="evenodd" clip-rule="evenodd" d="M84.9964 123.207L81.4551 122.501C80.8627 121.889 80.3908 121.153 80.0635 120.34C79.7371 119.53 79.5593 118.658 79.5388 117.774L77.9192 77.5721H77.2049L75.8488 117.804V117.809C75.8283 118.684 75.6537 119.547 75.3335 120.351C75.013 121.155 74.5508 121.885 73.9704 122.497L73.9425 122.526L73.9418 122.525C73.395 123.044 72.7551 123.44 72.0583 123.68C71.3765 123.916 70.6577 123.998 69.9447 123.921H66.6441H66.5863L66.5865 123.919C65.7723 123.859 64.9813 123.614 64.2616 123.203C63.5423 122.793 62.9108 122.226 62.4019 121.542C61.8932 120.859 61.5162 120.072 61.2899 119.229C61.0652 118.392 60.9928 117.514 61.0764 116.647L63.3934 75.4306V48.7138H37.4203C35.7021 48.7138 34.0754 47.9448 32.8911 46.6123C31.7096 45.2827 31.0588 43.4968 31.0588 41.651C31.0588 39.8053 31.7096 38.0194 32.8911 36.6898C34.0754 35.3572 35.7021 34.5883 37.4203 34.5883H118.814H118.836V34.5886C120.535 34.6365 122.131 35.417 123.303 36.7356C124.472 38.0515 125.135 39.8063 125.176 41.6334L125.176 41.67H125.176C125.132 43.4956 124.469 45.2483 123.3 46.5632C122.129 47.8807 120.535 48.6621 118.838 48.7134L118.814 48.7141V48.7138H91.726V75.503L94.3211 116.613C94.4171 117.475 94.3589 118.349 94.1496 119.187C93.9388 120.03 93.5777 120.823 93.0845 121.515C92.5905 122.208 91.9738 122.787 91.2666 123.215C90.5595 123.643 89.7775 123.908 88.9681 123.992L88.8879 124V123.996H84.9988H84.9964V123.207ZM73.4522 73.4841H74.2148H80.9044H81.6604L81.6911 74.2419L83.4193 117.629L83.4201 117.656H83.4193C83.4216 118.02 83.4885 118.378 83.6136 118.708C83.7339 119.028 83.9062 119.313 84.117 119.55C84.2798 119.697 84.4616 119.801 84.6503 119.863C84.8478 119.928 85.0523 119.945 85.2537 119.916L85.3087 119.908H85.3646H88.7864C89.0366 119.861 89.2804 119.76 89.5062 119.61C89.7492 119.448 89.9671 119.229 90.1441 118.962C90.3211 118.696 90.4525 118.388 90.5272 118.056C90.6012 117.723 90.6169 117.377 90.5721 117.037L90.565 116.984H90.5673L87.9243 75.6664L87.9211 75.6159H87.9227V45.4152V44.626H88.7093H118.789C119.433 44.5822 120.058 44.2743 120.542 43.7304C121.025 43.1864 121.327 42.448 121.372 41.65C121.328 40.8518 121.028 40.1125 120.544 39.5686C120.061 39.0244 119.434 38.7175 118.791 38.6761H37.4437C36.8004 38.7175 36.1738 39.0244 35.6902 39.5686C35.2066 40.1128 34.9057 40.8524 34.863 41.651C34.9057 42.4496 35.2066 43.1893 35.6902 43.7335C36.1738 44.2777 36.8004 44.5845 37.4437 44.626H66.4099H67.1965V45.4152V75.528V75.5722L67.1954 75.5721L64.8873 116.978L64.8841 117.035H64.882C64.8366 117.385 64.8552 117.741 64.9361 118.081C65.017 118.421 65.1577 118.734 65.3456 119.002C65.5335 119.269 65.7633 119.484 66.0173 119.639C66.2601 119.786 66.5215 119.876 66.7869 119.908H70.0894H70.1541L70.2181 119.919C70.4314 119.955 70.6493 119.94 70.8595 119.874C71.0586 119.812 71.2507 119.705 71.4231 119.553C71.6319 119.308 71.8006 119.016 71.9165 118.69C72.0374 118.35 72.0971 117.983 72.0904 117.613L72.0897 117.573L72.0906 117.574L73.4286 74.2489L73.4522 73.4841Z" fill="black"/>
<path d="M81.4551 122.501L81.3832 122.571L81.4049 122.593L81.4355 122.599L81.4551 122.501ZM84.9964 123.207H85.0964V123.125L85.016 123.109L84.9964 123.207ZM80.0635 120.34L79.9708 120.378L79.9708 120.378L80.0635 120.34ZM79.5388 117.774L79.6388 117.772L79.6388 117.77L79.5388 117.774ZM77.9192 77.5721L78.0191 77.5681L78.0152 77.4721H77.9192V77.5721ZM77.2049 77.5721V77.4721H77.1082L77.105 77.5687L77.2049 77.5721ZM75.8488 117.804L75.7488 117.801V117.804H75.8488ZM75.8488 117.809L75.9488 117.811V117.809H75.8488ZM75.3335 120.351L75.4264 120.388L75.4264 120.388L75.3335 120.351ZM73.9704 122.497L74.0427 122.566L74.0429 122.565L73.9704 122.497ZM73.9425 122.526L73.8683 122.593L73.9404 122.673L74.0148 122.595L73.9425 122.526ZM73.9418 122.525L74.016 122.458L73.9473 122.382L73.8729 122.452L73.9418 122.525ZM72.0583 123.68L72.0909 123.775L72.0909 123.775L72.0583 123.68ZM69.9447 123.921L69.9555 123.821H69.9447V123.921ZM66.5863 123.921L66.4866 123.915L66.4795 124.021H66.5863V123.921ZM66.5865 123.919L66.6863 123.925L66.6928 123.826L66.5939 123.819L66.5865 123.919ZM64.2616 123.203L64.3112 123.116L64.3111 123.116L64.2616 123.203ZM62.4019 121.542L62.3217 121.602L62.3217 121.602L62.4019 121.542ZM61.2899 119.229L61.1933 119.255L61.1933 119.255L61.2899 119.229ZM61.0764 116.647L61.176 116.657L61.1762 116.653L61.0764 116.647ZM63.3934 75.4306L63.4934 75.4362V75.4306H63.3934ZM63.3934 48.7138H63.4934V48.6138H63.3934V48.7138ZM32.8911 46.6123L32.8164 46.6787L32.8164 46.6787L32.8911 46.6123ZM32.8911 36.6898L32.8164 36.6233L32.8164 36.6234L32.8911 36.6898ZM118.836 34.5883H118.936V34.4883H118.836V34.5883ZM118.836 34.5886H118.736V34.6858L118.833 34.6885L118.836 34.5886ZM123.303 36.7356L123.377 36.6691L123.377 36.6691L123.303 36.7356ZM125.176 41.6334L125.276 41.6312L125.276 41.6312L125.176 41.6334ZM125.176 41.67V41.77H125.279L125.276 41.6678L125.176 41.67ZM125.176 41.67V41.57H125.078L125.076 41.6675L125.176 41.67ZM123.3 46.5632L123.225 46.4967L123.225 46.4968L123.3 46.5632ZM118.838 48.7134L118.841 48.8133L118.841 48.8133L118.838 48.7134ZM118.814 48.7141H118.714V48.8171L118.817 48.814L118.814 48.7141ZM118.814 48.7138H118.914V48.6138H118.814V48.7138ZM91.726 48.7138V48.6138H91.626V48.7138H91.726ZM91.726 75.503H91.6258L91.6262 75.5093L91.726 75.503ZM94.3211 116.613L94.2212 116.619L94.2217 116.624L94.3211 116.613ZM94.1496 119.187L94.0526 119.162L94.0526 119.162L94.1496 119.187ZM93.0845 121.515L93.1659 121.573L93.166 121.573L93.0845 121.515ZM91.2666 123.215L91.2149 123.129L91.2149 123.129L91.2666 123.215ZM88.9681 123.992L88.9779 124.092L88.9784 124.092L88.9681 123.992ZM88.8879 124H88.7879V124.11L88.8977 124.1L88.8879 124ZM88.8879 123.996H88.9879V123.896H88.8879V123.996ZM84.9964 123.996H84.8964V124.096H84.9964V123.996ZM73.4522 73.4841V73.3841H73.3552L73.3522 73.4811L73.4522 73.4841ZM81.6604 73.4841L81.7603 73.4801L81.7564 73.3841H81.6604V73.4841ZM81.6911 74.2419L81.791 74.2379L81.791 74.2378L81.6911 74.2419ZM83.4193 117.629L83.5192 117.627L83.5192 117.625L83.4193 117.629ZM83.4201 117.656V117.756H83.523L83.52 117.653L83.4201 117.656ZM83.4193 117.656V117.556H83.3186L83.3193 117.657L83.4193 117.656ZM83.6136 118.708L83.7072 118.673L83.7071 118.673L83.6136 118.708ZM84.117 119.55L84.0417 119.617L84.0501 119.625L84.117 119.55ZM84.6503 119.863L84.6815 119.768L84.6813 119.768L84.6503 119.863ZM85.2537 119.916L85.2395 119.817L85.2393 119.817L85.2537 119.916ZM85.3087 119.908V119.808H85.3016L85.2946 119.809L85.3087 119.908ZM88.7864 119.908V120.008H88.7958L88.805 120.006L88.7864 119.908ZM89.5062 119.61L89.4508 119.526L89.4507 119.526L89.5062 119.61ZM90.5272 118.056L90.6248 118.078L90.6248 118.077L90.5272 118.056ZM90.5721 117.037L90.6712 117.024L90.6712 117.024L90.5721 117.037ZM90.565 116.984V116.884H90.4507L90.4659 116.997L90.565 116.984ZM90.5673 116.984V117.084H90.6739L90.6671 116.978L90.5673 116.984ZM87.9243 75.6664L87.8245 75.6726L87.8245 75.6728L87.9243 75.6664ZM87.9211 75.6159V75.5159H87.8147L87.8213 75.6221L87.9211 75.6159ZM87.9227 75.6159V75.7159H88.0227V75.6159H87.9227ZM87.9227 44.626V44.526H87.8227V44.626H87.9227ZM118.789 44.626V44.7262L118.796 44.7257L118.789 44.626ZM120.542 43.7304L120.616 43.7969L120.616 43.7968L120.542 43.7304ZM121.372 41.65L121.472 41.6556L121.471 41.6446L121.372 41.65ZM120.544 39.5686L120.469 39.635L120.469 39.6351L120.544 39.5686ZM118.791 38.6761L118.797 38.5761H118.791V38.6761ZM37.4437 38.6761V38.5759L37.4373 38.5764L37.4437 38.6761ZM35.6902 39.5686L35.765 39.635L35.765 39.635L35.6902 39.5686ZM34.863 41.651L34.7625 41.6456L34.7631 41.6564L34.863 41.651ZM35.6902 43.7335L35.765 43.6671L35.765 43.6671L35.6902 43.7335ZM37.4437 44.626L37.4373 44.726H37.4437V44.626ZM67.1965 44.626H67.2965V44.526H67.1965V44.626ZM67.1965 75.5722L67.1901 75.672L67.2965 75.6788V75.5722H67.1965ZM67.1954 75.5721L67.2018 75.4723L67.1011 75.4658L67.0955 75.5665L67.1954 75.5721ZM64.8873 116.978L64.9872 116.983L64.9872 116.983L64.8873 116.978ZM64.8841 117.035V117.135H64.9787L64.9839 117.041L64.8841 117.035ZM64.882 117.035V116.935H64.7941L64.7828 117.022L64.882 117.035ZM64.9361 118.081L64.8388 118.104L64.8388 118.104L64.9361 118.081ZM65.3456 119.002L65.2637 119.059L65.2638 119.059L65.3456 119.002ZM66.0173 119.639L65.9653 119.724L65.9654 119.724L66.0173 119.639ZM66.7869 119.908L66.775 120.008H66.7869V119.908ZM70.1541 119.908L70.1711 119.809L70.1627 119.808H70.1541V119.908ZM70.2181 119.919L70.201 120.018L70.2016 120.018L70.2181 119.919ZM70.8595 119.874L70.8299 119.778L70.8297 119.779L70.8595 119.874ZM71.4231 119.553L71.49 119.628L71.4992 119.618L71.4231 119.553ZM71.9165 118.69L72.0107 118.724L72.0107 118.724L71.9165 118.69ZM72.0904 117.613L71.9904 117.615L71.9904 117.615L72.0904 117.613ZM72.0897 117.573L72.1532 117.496L71.9858 117.359L71.9897 117.575L72.0897 117.573ZM72.0906 117.574L72.0271 117.651L72.1843 117.781L72.1906 117.577L72.0906 117.574ZM73.4286 74.2489L73.5285 74.252L73.5285 74.252L73.4286 74.2489ZM81.4355 122.599L84.9769 123.305L85.016 123.109L81.4746 122.403L81.4355 122.599ZM79.9708 120.378C80.3026 121.201 80.7815 121.949 81.3832 122.571L81.5269 122.432C80.944 121.829 80.4789 121.104 80.1563 120.303L79.9708 120.378ZM79.4389 117.776C79.4596 118.672 79.6397 119.556 79.9708 120.378L80.1563 120.303C79.8344 119.504 79.659 118.644 79.6388 117.772L79.4389 117.776ZM77.8193 77.5761L79.4389 117.778L79.6388 117.77L78.0191 77.5681L77.8193 77.5761ZM77.2049 77.6721H77.9192V77.4721H77.2049V77.6721ZM75.9487 117.807L77.3049 77.5755L77.105 77.5687L75.7488 117.801L75.9487 117.807ZM75.9488 117.809V117.804H75.7488V117.809H75.9488ZM75.4264 120.388C75.7511 119.573 75.928 118.698 75.9488 117.811L75.7488 117.806C75.7286 118.67 75.5563 119.521 75.2406 120.314L75.4264 120.388ZM74.0429 122.565C74.6325 121.944 75.1014 121.203 75.4264 120.388L75.2406 120.314C74.9246 121.107 74.4692 121.826 73.8979 122.428L74.0429 122.565ZM74.0148 122.595L74.0427 122.566L73.8981 122.427L73.8702 122.457L74.0148 122.595ZM73.8675 122.592L73.8683 122.593L74.0167 122.459L74.016 122.458L73.8675 122.592ZM72.0909 123.775C72.8018 123.529 73.454 123.126 74.0106 122.597L73.8729 122.452C73.336 122.962 72.7083 123.35 72.0256 123.586L72.0909 123.775ZM69.9339 124.021C70.6618 124.099 71.3954 124.015 72.0909 123.775L72.0257 123.586C71.3576 123.816 70.6536 123.897 69.9555 123.822L69.9339 124.021ZM66.6441 124.021H69.9447V123.821H66.6441V124.021ZM66.5863 124.021H66.6441V123.821H66.5863V124.021ZM66.4867 123.912L66.4866 123.915L66.6861 123.928L66.6863 123.925L66.4867 123.912ZM64.212 123.29C64.9443 123.708 65.7497 123.957 66.5792 124.018L66.5939 123.819C65.7949 123.76 65.0183 123.52 64.3112 123.116L64.212 123.29ZM62.3217 121.602C62.8385 122.296 63.4802 122.872 64.212 123.29L64.3111 123.116C63.6044 122.713 62.9832 122.156 62.4821 121.483L62.3217 121.602ZM61.1933 119.255C61.4227 120.11 61.8052 120.908 62.3217 121.602L62.4821 121.483C61.9812 120.81 61.6096 120.034 61.3865 119.203L61.1933 119.255ZM60.9768 116.637C60.8921 117.517 60.9655 118.406 61.1933 119.255L61.3865 119.203C61.1649 118.378 61.0935 117.512 61.1759 116.656L60.9768 116.637ZM63.2935 75.425L60.9765 116.641L61.1762 116.653L63.4932 75.4362L63.2935 75.425ZM63.2934 48.7138V75.4306H63.4934V48.7138H63.2934ZM37.4203 48.8138H63.3934V48.6138H37.4203V48.8138ZM32.8164 46.6787C34.0182 48.0311 35.6715 48.8138 37.4203 48.8138V48.6138C35.7327 48.6138 34.1325 47.8586 32.9659 46.5458L32.8164 46.6787ZM30.9588 41.651C30.9588 43.5198 31.6176 45.3297 32.8164 46.6787L32.9659 46.5458C31.8016 45.2357 31.1588 43.4739 31.1588 41.651H30.9588ZM32.8164 36.6234C31.6176 37.9724 30.9588 39.7823 30.9588 41.651H31.1588C31.1588 39.8282 31.8016 38.0665 32.9659 36.7562L32.8164 36.6234ZM37.4203 34.4883C35.6715 34.4883 34.0182 35.271 32.8164 36.6233L32.9659 36.7562C34.1325 35.4434 35.7327 34.6883 37.4203 34.6883V34.4883ZM118.814 34.4883H37.4203V34.6883H118.814V34.4883ZM118.836 34.4883H118.814V34.6883H118.836V34.4883ZM118.936 34.5886V34.5883H118.736V34.5886H118.936ZM123.377 36.6691C122.188 35.3315 120.567 34.5374 118.839 34.4886L118.833 34.6885C120.502 34.7356 122.073 35.5026 123.228 36.802L123.377 36.6691ZM125.276 41.6312C125.234 39.7819 124.564 38.0039 123.377 36.6691L123.228 36.802C124.381 38.0991 125.035 39.8308 125.076 41.6357L125.276 41.6312ZM125.276 41.6678L125.276 41.6312L125.076 41.6356L125.076 41.6721L125.276 41.6678ZM125.176 41.77H125.176V41.57H125.176V41.77ZM123.374 46.6296C124.56 45.2959 125.231 43.5202 125.276 41.6724L125.076 41.6675C125.032 43.4711 124.377 45.2006 123.225 46.4967L123.374 46.6296ZM118.841 48.8133C120.567 48.7611 122.187 47.9662 123.374 46.6296L123.225 46.4968C122.071 47.7952 120.502 48.563 118.835 48.6134L118.841 48.8133ZM118.817 48.814L118.841 48.8133L118.835 48.6134L118.811 48.6141L118.817 48.814ZM118.714 48.7138V48.7141H118.914V48.7138H118.714ZM91.726 48.8138H118.814V48.6138H91.726V48.8138ZM91.826 75.503V48.7138H91.626V75.503H91.826ZM94.4209 116.607L91.8258 75.4967L91.6262 75.5093L94.2213 116.619L94.4209 116.607ZM94.2466 119.211C94.4588 118.362 94.5178 117.475 94.4205 116.602L94.2217 116.624C94.3164 117.474 94.2589 118.337 94.0526 119.162L94.2466 119.211ZM93.166 121.573C93.6667 120.87 94.0329 120.066 94.2466 119.211L94.0526 119.162C93.8447 119.994 93.4888 120.775 93.0031 121.457L93.166 121.573ZM91.3184 123.3C92.0378 122.865 92.6644 122.276 93.1659 121.573L93.0031 121.457C92.5166 122.139 91.9098 122.709 91.2149 123.129L91.3184 123.3ZM88.9784 124.092C89.8029 124.006 90.5989 123.735 91.3184 123.3L91.2149 123.129C90.52 123.55 89.7522 123.811 88.9578 123.893L88.9784 124.092ZM88.8977 124.1L88.9779 124.092L88.9583 123.893L88.8781 123.901L88.8977 124.1ZM88.7879 123.996V124H88.9879V123.996H88.7879ZM84.9988 124.096H88.8879V123.896H84.9988V124.096ZM84.9964 124.096H84.9988V123.896H84.9964V124.096ZM84.8964 123.207V123.996H85.0964V123.207H84.8964ZM74.2148 73.3841H73.4522V73.5841H74.2148V73.3841ZM80.9044 73.3841H74.2148V73.5841H80.9044V73.3841ZM81.6604 73.3841H80.9044V73.5841H81.6604V73.3841ZM81.791 74.2378L81.7603 73.4801L81.5605 73.4882L81.5911 74.2459L81.791 74.2378ZM83.5192 117.625L81.791 74.2379L81.5911 74.2458L83.3194 117.633L83.5192 117.625ZM83.52 117.653L83.5192 117.627L83.3193 117.632L83.3201 117.659L83.52 117.653ZM83.4193 117.756H83.4201V117.556H83.4193V117.756ZM83.7071 118.673C83.5863 118.354 83.5216 118.008 83.5193 117.656L83.3193 117.657C83.3217 118.033 83.3907 118.403 83.5201 118.744L83.7071 118.673ZM84.1918 119.484C83.9894 119.256 83.8233 118.982 83.7072 118.673L83.52 118.744C83.6445 119.074 83.823 119.37 84.0422 119.617L84.1918 119.484ZM84.6813 119.768C84.5063 119.711 84.3367 119.614 84.184 119.476L84.0501 119.625C84.2229 119.781 84.4168 119.892 84.6193 119.958L84.6813 119.768ZM85.2393 119.817C85.0533 119.844 84.8643 119.828 84.6815 119.768L84.6192 119.958C84.8313 120.027 85.0513 120.046 85.268 120.015L85.2393 119.817ZM85.2946 119.809L85.2395 119.817L85.2679 120.015L85.3229 120.007L85.2946 119.809ZM85.3646 119.808H85.3087V120.008H85.3646V119.808ZM88.7864 119.808H85.3646V120.008H88.7864V119.808ZM89.4507 119.526C89.2356 119.67 89.0042 119.765 88.7678 119.81L88.805 120.006C89.0689 119.956 89.3253 119.851 89.5617 119.693L89.4507 119.526ZM90.0608 118.907C89.8908 119.163 89.6822 119.372 89.4508 119.526L89.5616 119.693C89.8163 119.523 90.0435 119.295 90.2275 119.018L90.0608 118.907ZM90.4297 118.034C90.3575 118.354 90.2308 118.651 90.0608 118.907L90.2275 119.018C90.4114 118.741 90.5475 118.421 90.6248 118.078L90.4297 118.034ZM90.4729 117.05C90.5162 117.378 90.501 117.713 90.4296 118.034L90.6248 118.077C90.7013 117.734 90.7176 117.376 90.6712 117.024L90.4729 117.05ZM90.4659 116.997L90.4729 117.05L90.6712 117.024L90.6641 116.971L90.4659 116.997ZM90.5673 116.884H90.565V117.084H90.5673V116.884ZM87.8245 75.6728L90.4675 116.99L90.6671 116.978L88.0241 75.66L87.8245 75.6728ZM87.8213 75.6221L87.8245 75.6726L88.0241 75.6602L88.0209 75.6097L87.8213 75.6221ZM87.9227 75.5159H87.9211V75.7159H87.9227V75.5159ZM87.8227 45.4152V75.6159H88.0227V45.4152H87.8227ZM87.8227 44.626V45.4152H88.0227V44.626H87.8227ZM88.7093 44.526H87.9227V44.726H88.7093V44.526ZM118.789 44.526H88.7093V44.726H118.789V44.526ZM120.467 43.664C119.999 44.1896 119.398 44.4843 118.782 44.5262L118.796 44.7257C119.467 44.68 120.116 44.3589 120.616 43.7969L120.467 43.664ZM121.272 41.6444C121.228 42.4212 120.934 43.1379 120.467 43.664L120.616 43.7968C121.115 43.235 121.425 42.4748 121.471 41.6556L121.272 41.6444ZM120.469 39.6351C120.937 40.161 121.23 40.8783 121.272 41.6554L121.471 41.6446C121.427 40.8252 121.119 40.064 120.619 39.5021L120.469 39.6351ZM118.784 38.7759C119.4 38.8155 120.003 39.1092 120.469 39.635L120.619 39.5022C120.12 38.9397 119.469 38.6195 118.797 38.5764L118.784 38.7759ZM37.4437 38.7761H118.791V38.5761H37.4437V38.7761ZM35.765 39.635C36.2323 39.1092 36.8349 38.8155 37.4501 38.7759L37.4373 38.5764C36.7659 38.6195 36.1153 38.9397 35.6155 39.5022L35.765 39.635ZM34.9628 41.6564C35.0044 40.879 35.2973 40.1612 35.765 39.635L35.6155 39.5022C35.1159 40.0643 34.8069 40.8258 34.7631 41.6457L34.9628 41.6564ZM35.765 43.6671C35.2973 43.1408 35.0044 42.423 34.9628 41.6457L34.7631 41.6564C34.8069 42.4762 35.1159 43.2378 35.6155 43.7999L35.765 43.6671ZM37.4501 44.5262C36.8349 44.4865 36.2323 44.1929 35.765 43.6671L35.6155 43.7999C36.1153 44.3624 36.7659 44.6825 37.4373 44.7258L37.4501 44.5262ZM66.4099 44.526H37.4437V44.726H66.4099V44.526ZM67.1965 44.526H66.4099V44.726H67.1965V44.526ZM67.2965 45.4152V44.626H67.0965V45.4152H67.2965ZM67.2965 75.528V45.4152H67.0965V75.528H67.2965ZM67.2965 75.5722V75.528H67.0965V75.5722H67.2965ZM67.1889 75.6719L67.1901 75.672L67.203 75.4724L67.2018 75.4723L67.1889 75.6719ZM64.9872 116.983L67.2952 75.5776L67.0955 75.5665L64.7875 116.972L64.9872 116.983ZM64.9839 117.041L64.9872 116.983L64.7875 116.972L64.7843 117.03L64.9839 117.041ZM64.882 117.135H64.8841V116.935H64.882V117.135ZM65.0334 118.058C64.9553 117.729 64.9373 117.386 64.9811 117.048L64.7828 117.022C64.7359 117.384 64.7551 117.752 64.8388 118.104L65.0334 118.058ZM65.4275 118.945C65.2471 118.687 65.1115 118.386 65.0334 118.058L64.8388 118.104C64.9226 118.456 65.0683 118.78 65.2637 119.059L65.4275 118.945ZM66.0693 119.553C65.8276 119.406 65.6077 119.201 65.4275 118.944L65.2638 119.059C65.4592 119.338 65.6991 119.562 65.9653 119.724L66.0693 119.553ZM66.7987 119.809C66.548 119.779 66.3002 119.694 66.0693 119.553L65.9654 119.724C66.2201 119.879 66.4951 119.974 66.7751 120.007L66.7987 119.809ZM70.0894 119.808H66.7869V120.008H70.0894V119.808ZM70.1541 119.808H70.0894V120.008H70.1541V119.808ZM70.2351 119.82L70.1711 119.809L70.1371 120.006L70.201 120.018L70.2351 119.82ZM70.8297 119.779C70.6343 119.839 70.4322 119.853 70.2345 119.82L70.2016 120.018C70.4305 120.056 70.6642 120.04 70.8892 119.969L70.8297 119.779ZM71.3569 119.478C71.1947 119.621 71.015 119.721 70.8299 119.778L70.889 119.97C71.1023 119.904 71.3068 119.789 71.4893 119.628L71.3569 119.478ZM71.8222 118.657C71.7103 118.972 71.5476 119.253 71.347 119.488L71.4992 119.618C71.7161 119.363 71.8909 119.061 72.0107 118.724L71.8222 118.657ZM71.9904 117.615C71.9969 117.973 71.939 118.328 71.8222 118.657L72.0107 118.724C72.1357 118.372 72.1973 117.993 72.1904 117.611L71.9904 117.615ZM71.9897 117.575L71.9904 117.615L72.1904 117.611L72.1897 117.572L71.9897 117.575ZM72.1541 117.497L72.1532 117.496L72.0261 117.651L72.0271 117.651L72.1541 117.497ZM73.3286 74.2458L71.9907 117.571L72.1906 117.577L73.5285 74.252L73.3286 74.2458ZM73.3522 73.4811L73.3286 74.2458L73.5285 74.252L73.5521 73.4872L73.3522 73.4811Z" fill="black"/>
<path fill-rule="evenodd" clip-rule="evenodd" d="M76.353 31.0588C73.9096 31.0588 71.5216 30.3343 69.4901 28.9769C67.4586 27.6196 65.8753 25.6904 64.9403 23.4332C64.0054 21.1759 63.7607 18.6922 64.2374 16.296C64.714 13.8998 65.8906 11.6987 67.6182 9.97109C69.3458 8.24351 71.5469 7.067 73.9435 6.59034C76.3393 6.11368 78.8231 6.35834 81.0802 7.29326C83.338 8.22826 85.2666 9.81156 86.6248 11.8429C87.982 13.8744 88.7059 16.2627 88.7059 18.7059C88.7059 21.9821 87.4051 25.1241 85.0883 27.4407C82.7716 29.7573 79.6293 31.0588 76.353 31.0588ZM76.353 10.5327C74.7367 10.5327 73.1563 11.012 71.8122 11.9101C70.4681 12.8081 69.4205 14.0846 68.8019 15.5781C68.1832 17.0716 68.0214 18.7149 68.3367 20.3004C68.6521 21.8859 69.4306 23.3423 70.5736 24.4853C71.7166 25.6283 73.173 26.4068 74.7585 26.7221C76.3441 27.0375 77.9871 26.8756 79.4807 26.257C80.9744 25.6384 82.251 24.5908 83.1492 23.2467C84.0473 21.9027 84.5266 20.3225 84.5266 18.7059C84.5266 16.5382 83.6656 14.4593 82.1324 12.9265C80.6 11.3937 78.5205 10.5327 76.353 10.5327Z" fill="black"/>
<path d="M69.4901 28.9769L69.4345 29.0601L69.4345 29.0601L69.4901 28.9769ZM64.9403 23.4332L64.8479 23.4715L64.8479 23.4715L64.9403 23.4332ZM64.2374 16.296L64.3355 16.3155L64.2374 16.296ZM67.6182 9.97109L67.6889 10.0418L67.6889 10.0418L67.6182 9.97109ZM73.9435 6.59034L73.963 6.68841L73.963 6.68841L73.9435 6.59034ZM81.0802 7.29326L81.0419 7.38565L81.0419 7.38565L81.0802 7.29326ZM86.6248 11.8429L86.7079 11.7874L86.7079 11.7874L86.6248 11.8429ZM85.0883 27.4407L85.0176 27.37L85.0176 27.37L85.0883 27.4407ZM71.8122 11.9101L71.8677 11.9933L71.8678 11.9933L71.8122 11.9101ZM68.8019 15.5781L68.7095 15.5399L68.7095 15.5399L68.8019 15.5781ZM68.3367 20.3004L68.4348 20.2809L68.4348 20.2809L68.3367 20.3004ZM70.5736 24.4853L70.6443 24.4146L70.6443 24.4146L70.5736 24.4853ZM74.7585 26.7221L74.739 26.8202L74.739 26.8202L74.7585 26.7221ZM79.4807 26.257L79.4425 26.1646L79.4425 26.1646L79.4807 26.257ZM83.1492 23.2467L83.066 23.1912L83.066 23.1912L83.1492 23.2467ZM82.1324 12.9265L82.0617 12.9972L82.0617 12.9972L82.1324 12.9265ZM69.4345 29.0601C71.4825 30.4284 73.8898 31.1588 76.353 31.1588V30.9588C73.9294 30.9588 71.5607 30.2402 69.5456 28.8938L69.4345 29.0601ZM64.8479 23.4715C65.7905 25.7469 67.3866 27.6918 69.4345 29.0601L69.5456 28.8938C67.5307 27.5474 65.9601 25.6338 65.0327 23.3949L64.8479 23.4715ZM64.1393 16.2765C63.6588 18.6921 63.9054 21.1959 64.8479 23.4715L65.0327 23.3949C64.1053 21.1559 63.8626 18.6923 64.3355 16.3155L64.1393 16.2765ZM67.5475 9.90038C65.8059 11.6419 64.6198 13.8609 64.1393 16.2765L64.3355 16.3155C64.8083 13.9387 65.9753 11.7554 67.6889 10.0418L67.5475 9.90038ZM73.924 6.49226C71.508 6.97277 69.2891 8.15882 67.5475 9.90038L67.6889 10.0418C69.4025 8.32821 71.5858 7.16122 73.963 6.68841L73.924 6.49226ZM81.1184 7.20087C78.8431 6.25838 76.3392 6.01174 73.924 6.49226L73.963 6.68841C76.3394 6.21561 78.8031 6.4583 81.0419 7.38565L81.1184 7.20087ZM86.7079 11.7874C85.3388 9.73956 83.3946 8.14344 81.1184 7.20087L81.0419 7.38565C83.2815 8.31308 85.1945 9.88356 86.5416 11.8985L86.7079 11.7874ZM88.8059 18.7059C88.8059 16.243 88.0762 13.8353 86.7079 11.7874L86.5416 11.8985C87.8879 13.9135 88.6059 16.2825 88.6059 18.7059H88.8059ZM85.159 27.5114C87.4945 25.1761 88.8059 22.0086 88.8059 18.7059H88.6059C88.6059 21.9556 87.3156 25.0722 85.0176 27.37L85.159 27.5114ZM76.353 31.1588C79.6558 31.1588 82.8235 29.8468 85.159 27.5114L85.0176 27.37C82.7196 29.6679 79.6028 30.9588 76.353 30.9588V31.1588ZM71.8678 11.9933C73.1954 11.1061 74.7564 10.6327 76.353 10.6327V10.4327C74.7169 10.4327 73.1171 10.9178 71.7566 11.827L71.8678 11.9933ZM68.8942 15.6164C69.5053 14.1412 70.5401 12.8803 71.8677 11.9933L71.7566 11.827C70.396 12.736 69.3356 14.0281 68.7095 15.5399L68.8942 15.6164ZM68.4348 20.2809C68.1233 18.7148 68.2832 17.0916 68.8942 15.6164L68.7095 15.5399C68.0833 17.0516 67.9194 18.7151 68.2386 20.3199L68.4348 20.2809ZM70.6443 24.4146C69.5152 23.2855 68.7463 21.847 68.4348 20.2809L68.2386 20.3199C68.5579 21.9248 69.3459 23.399 70.5029 24.556L70.6443 24.4146ZM74.778 26.6241C73.2119 26.3126 71.7734 25.5436 70.6443 24.4146L70.5029 24.556C71.6599 25.713 73.1341 26.501 74.739 26.8202L74.778 26.6241ZM79.4425 26.1646C77.9671 26.7757 76.3442 26.9355 74.778 26.6241L74.739 26.8202C76.344 27.1394 78.0071 26.9756 79.519 26.3494L79.4425 26.1646ZM83.066 23.1912C82.1789 24.5188 80.9179 25.5536 79.4425 26.1646L79.519 26.3494C81.031 25.7232 82.3232 24.6628 83.2323 23.3023L83.066 23.1912ZM84.4266 18.7059C84.4266 20.3027 83.9532 21.8636 83.066 23.1912L83.2323 23.3023C84.1414 21.9418 84.6266 20.3422 84.6266 18.7059H84.4266ZM82.0617 12.9972C83.5761 14.5113 84.4266 16.5647 84.4266 18.7059H84.6266C84.6266 16.5117 83.7551 14.4073 82.2031 12.8558L82.0617 12.9972ZM76.353 10.6327C78.494 10.6327 80.548 11.4832 82.0617 12.9972L82.2031 12.8558C80.6519 11.3043 78.547 10.4327 76.353 10.4327V10.6327Z" fill="black"/>
<path d="M28.781 4H13.9813C13.3771 4 12.7977 4.23884 12.3706 4.66397C11.9434 5.08909 11.7033 5.66575 11.7033 6.26695V115.937H5.10144C4.49725 115.937 3.91788 116.175 3.49071 116.601C3.06352 117.026 2.82353 117.602 2.82353 118.203C2.82353 118.805 3.06352 119.382 3.49071 119.807C3.91788 120.232 4.49733 120.471 5.10144 120.471H22.8611C23.4652 120.471 24.0446 120.232 24.4718 119.807C24.899 119.382 25.139 118.805 25.139 118.203C25.139 117.602 24.899 117.026 24.4718 116.601C24.0446 116.175 23.4653 115.937 22.8611 115.937H16.2592V96.9054H25.821C26.4251 96.9054 27.0045 96.6664 27.4317 96.2415C27.8589 95.8159 28.0989 95.2394 28.0989 94.6383C28.0989 94.0371 27.8589 93.4606 27.4317 93.035C27.0046 92.6102 26.4251 92.3712 25.821 92.3712H16.2592V88.068H19.9011C20.5053 88.068 21.0847 87.829 21.5119 87.4042C21.9391 86.9785 22.179 86.402 22.179 85.8009C22.179 85.1998 21.9391 84.6233 21.5119 84.1984C21.0847 83.7728 20.5053 83.5338 19.9011 83.5338H16.2592V79.2307H25.821C26.4251 79.2307 27.0046 78.9924 27.4317 78.5668C27.8589 78.142 28.0989 77.5655 28.0989 76.9636C28.0989 76.3624 27.8589 75.7861 27.4317 75.361C27.0046 74.9359 26.4251 74.697 25.821 74.697H16.2592V70.3938H19.9011C20.5053 70.3938 21.0847 70.1549 21.5119 69.7298C21.9391 69.3047 22.179 68.728 22.179 68.1268C22.179 67.5256 21.9391 66.949 21.5119 66.5238C21.0847 66.0988 20.5053 65.8599 19.9011 65.8599H16.2592V61.5567H25.821C26.4251 61.5567 27.0045 61.3178 27.4317 60.8927C27.8589 60.4675 28.0989 59.8909 28.0989 59.2897C28.0989 58.6884 27.8589 58.1119 27.4317 57.6867C27.0045 57.2616 26.4251 57.0228 25.821 57.0228H16.2592V52.7195H19.9011C20.5053 52.7195 21.0847 52.4807 21.5119 52.0555C21.9391 51.6304 22.179 51.0538 22.179 50.4526C22.179 49.8513 21.9391 49.2747 21.5119 48.8496C21.0847 48.4244 20.5053 48.1857 19.9011 48.1857H16.2592V43.8824H25.821C26.4251 43.8824 27.0046 43.6436 27.4317 43.2184C27.8589 42.7933 28.0989 42.2167 28.0989 41.6154C28.0989 41.0142 27.8589 40.4376 27.4317 40.0125C27.0045 39.5873 26.4251 39.3485 25.821 39.3485H16.2592V35.0452H19.9011C20.5053 35.0452 21.0847 34.8064 21.5119 34.3813C21.9391 33.9562 22.179 33.3796 22.179 32.7783C22.179 32.1771 21.9391 31.6005 21.5119 31.1754C21.0847 30.7502 20.5053 30.5113 19.9011 30.5113H16.2592V26.2081H25.821C26.4251 26.2081 27.0046 25.9693 27.4317 25.5442C27.8589 25.119 28.0989 24.5424 28.0989 23.9412C28.0989 23.34 27.8589 22.7634 27.4317 22.3382C27.0046 21.9131 26.4251 21.6742 25.821 21.6742H16.2592V17.371H19.9011C20.5053 17.371 21.0847 17.1322 21.5119 16.707C21.9391 16.2819 22.179 15.7053 22.179 15.1041C22.179 14.5029 21.9391 13.9262 21.5119 13.5011C21.0847 13.076 20.5053 12.8371 19.9011 12.8371H16.2592V8.5339H28.781C29.3851 8.5339 29.9645 8.29504 30.3917 7.86989C30.8189 7.44473 31.0588 6.86815 31.0588 6.26695C31.0588 5.66575 30.8189 5.08909 30.3917 4.66397C29.9645 4.23884 29.3851 4 28.781 4Z" fill="black" stroke="black" stroke-width="0.2"/>
</svg>
